<?xml version="1.0" encoding="utf-8"?>
<!-- Generator: Adobe Illustrator 27.9.6, SVG Export Plug-In . SVG Version: 9.03 Build 54986)  -->
<svg version="1.1" id="_レイヤー_2" xmlns="http://www.w3.org/2000/svg" xmlns:xlink="http://www.w3.org/1999/xlink" x="0px"
	 y="0px" viewBox="0 0 300.2 50" style="enable-background:new 0 0 300.2 50;" xml:space="preserve">
<style type="text/css">
	.st0{fill:url(#SVGID_1_);}
	.st1{fill:url(#SVGID_00000017495206084243112630000013091948346868778393_);}
	.st2{fill:url(#SVGID_00000005263128001380817450000007516665706305121428_);}
	.st3{fill:url(#SVGID_00000014592775598653157420000011888304964430782592_);}
	.st4{fill:url(#SVGID_00000066509428514154988620000009190242275066553249_);}
	.st5{fill:url(#SVGID_00000039113654237019877040000006654290475925167292_);}
	.st6{fill:url(#SVGID_00000088131637857834607460000011034307445549203078_);}
	.st7{fill:url(#SVGID_00000008854092556263424070000000482029232573097110_);}
	.st8{fill:url(#SVGID_00000046333580007668354660000008608619455730961056_);}
	.st9{fill:url(#SVGID_00000161621167895530454790000003293836422868683197_);}
	.st10{fill:url(#SVGID_00000047035153122094463220000011422713637286578091_);}
	.st11{fill:url(#SVGID_00000149377617690816483580000005436256694174425008_);}
	.st12{fill:url(#SVGID_00000040559058538449940160000013784062609072002976_);}
	.st13{fill:url(#SVGID_00000008111418109644444230000017788821371884995210_);}
	.st14{fill:url(#SVGID_00000158731656185841034420000006886272060013049774_);}
	.st15{fill:url(#SVGID_00000060728180838714421340000001886622441503319988_);}
	.st16{fill:#1B258A;}
</style>
<g>
	<g>
		<g>
			
				<radialGradient id="SVGID_1_" cx="32.8506" cy="41.1807" r="37.7722" gradientTransform="matrix(1 0 0 -1 0 49.8898)" gradientUnits="userSpaceOnUse">
				<stop  offset="0" style="stop-color:#D2ECFA"/>
				<stop  offset="0.2256" style="stop-color:#009FE8"/>
				<stop  offset="0.4552" style="stop-color:#0068B6"/>
				<stop  offset="0.6604" style="stop-color:#004DA0"/>
				<stop  offset="1" style="stop-color:#1D2087"/>
			</radialGradient>
			<path class="st0" d="M42.6,6.8c-9,6.5-16,13.9-21.4,20.6c1.7,1.2,3.5,2.5,5.4,3.7C33.6,17.3,42.6,6.8,42.6,6.8z"/>
			
				<radialGradient id="SVGID_00000095319465757917179780000001634730588423629748_" cx="32.8506" cy="41.1807" r="37.7721" gradientTransform="matrix(1 0 0 -1 0 49.8898)" gradientUnits="userSpaceOnUse">
				<stop  offset="0" style="stop-color:#D2ECFA"/>
				<stop  offset="0.2256" style="stop-color:#009FE8"/>
				<stop  offset="0.4552" style="stop-color:#0068B6"/>
				<stop  offset="0.6604" style="stop-color:#004DA0"/>
				<stop  offset="1" style="stop-color:#1D2087"/>
			</radialGradient>
			<path style="fill:url(#SVGID_00000095319465757917179780000001634730588423629748_);" d="M8.2,48.2h11.9c1.2-5,3.1-9.8,5.2-14.4
				c-2.1-1.4-4-2.8-5.8-4.2C11.7,39.9,8.2,48.2,8.2,48.2z"/>
			
				<radialGradient id="SVGID_00000075850784734702688290000014256873363474776223_" cx="58.7773" cy="46.9142" r="47.287" gradientTransform="matrix(1 0 0 -1 0 49.8898)" gradientUnits="userSpaceOnUse">
				<stop  offset="0" style="stop-color:#D2ECFA"/>
				<stop  offset="0.2256" style="stop-color:#009FE8"/>
				<stop  offset="0.4552" style="stop-color:#0068B6"/>
				<stop  offset="0.6604" style="stop-color:#004DA0"/>
				<stop  offset="1" style="stop-color:#1D2087"/>
			</radialGradient>
			<path style="fill:url(#SVGID_00000075850784734702688290000014256873363474776223_);" d="M26.6,48.2h11.9
				c0.3-2.2,0.7-4.4,1.2-6.4c-2.7-1.1-5.6-2.6-8.5-4.3C28.1,43.8,26.6,48.2,26.6,48.2z"/>
			
				<radialGradient id="SVGID_00000032622084014457731830000001013359494068567682_" cx="58.7773" cy="46.9142" r="47.2869" gradientTransform="matrix(1 0 0 -1 0 49.8898)" gradientUnits="userSpaceOnUse">
				<stop  offset="0" style="stop-color:#D2ECFA"/>
				<stop  offset="0.2256" style="stop-color:#009FE8"/>
				<stop  offset="0.4552" style="stop-color:#0068B6"/>
				<stop  offset="0.6604" style="stop-color:#004DA0"/>
				<stop  offset="1" style="stop-color:#1D2087"/>
			</radialGradient>
			<path style="fill:url(#SVGID_00000032622084014457731830000001013359494068567682_);" d="M57.5,1.3C45.6,11.9,37.5,25,32.6,34.6
				c2.7,1.4,5.4,2.6,8,3.6C46.1,16,57.5,1.3,57.5,1.3z"/>
		</g>
		<g>
			
				<radialGradient id="SVGID_00000160189103972409802990000008184841439018722709_" cx="26.0522" cy="29.2727" r="7.3353" gradientTransform="matrix(1 0 0 -1 0 49.8898)" gradientUnits="userSpaceOnUse">
				<stop  offset="0" style="stop-color:#FFFFFF"/>
				<stop  offset="0.2301" style="stop-color:#FFFFFF"/>
				<stop  offset="1" style="stop-color:#FFFFFF;stop-opacity:0"/>
			</radialGradient>
			<path style="fill:url(#SVGID_00000160189103972409802990000008184841439018722709_);" d="M38.5,10.8c-6.8,5.5-12.3,11.5-16.7,17
				c1.4,1,2.8,1.9,4.2,2.9C30.2,22.3,35.2,15.2,38.5,10.8z"/>
			
				<radialGradient id="SVGID_00000091729372190972820590000004686354236071776396_" cx="38.3649" cy="26.3601" r="7.22" gradientTransform="matrix(1 0 0 -1 0 49.8898)" gradientUnits="userSpaceOnUse">
				<stop  offset="0" style="stop-color:#FFFFFF"/>
				<stop  offset="0.2301" style="stop-color:#FFFFFF"/>
				<stop  offset="1" style="stop-color:#FFFFFF;stop-opacity:0"/>
			</radialGradient>
			<path style="fill:url(#SVGID_00000091729372190972820590000004686354236071776396_);" d="M53.2,6.3c-9.2,9.5-15.8,20.3-20,28.6
				c2.2,1.1,4.5,2.1,6.7,3C43.4,23.8,49.4,12.6,53.2,6.3z"/>
		</g>
		<g>
			<g>
				
					<radialGradient id="SVGID_00000035530097228996721750000009967182108030792840_" cx="-663.7881" cy="338.0948" r="3.515" gradientTransform="matrix(0.9475 0.4507 0.2173 -0.952 558.5922 632.0877)" gradientUnits="userSpaceOnUse">
					<stop  offset="0" style="stop-color:#D2ECFA"/>
					<stop  offset="0.2256" style="stop-color:#009FE8"/>
					<stop  offset="0.4552" style="stop-color:#0068B6"/>
					<stop  offset="0.6604" style="stop-color:#004DA0"/>
					<stop  offset="1" style="stop-color:#1D2087"/>
				</radialGradient>
				<path style="fill:url(#SVGID_00000035530097228996721750000009967182108030792840_);" d="M5.9,13.5c-0.3,1.4-1.7,1.9-3,1.3
					c-1.4-0.6-2.2-2.3-1.9-3.6c0.3-1.4,1.7-1.9,3-1.3C5.4,10.5,6.2,12.1,5.9,13.5z"/>
			</g>
			<g>
				
					<radialGradient id="SVGID_00000008837945787732398420000015997750767872970128_" cx="-663.2037" cy="334.2411" r="2.1018" gradientTransform="matrix(0.9475 0.4507 0.2173 -0.952 558.5922 632.0877)" gradientUnits="userSpaceOnUse">
					<stop  offset="0" style="stop-color:#FFFFFF"/>
					<stop  offset="0.2301" style="stop-color:#FFFFFF"/>
					<stop  offset="1" style="stop-color:#FFFFFF;stop-opacity:0"/>
				</radialGradient>
				<path style="fill:url(#SVGID_00000008837945787732398420000015997750767872970128_);" d="M1.1,11.6c-0.1,1.2,0.7,2.5,1.8,3
					s2.3,0.2,2.7-0.9C5,14,4.1,13.9,3.2,13.5C2.3,13,1.6,12.4,1.1,11.6z"/>
			</g>
			
				<radialGradient id="SVGID_00000048471595469563488360000004285713657610430138_" cx="-252.6481" cy="517.7171" r="0.7661" gradientTransform="matrix(1.7323 1.2969 0.6289 -1.2198 116.0017 970.3406)" gradientUnits="userSpaceOnUse">
				<stop  offset="0" style="stop-color:#FFFFFF"/>
				<stop  offset="0.2301" style="stop-color:#FFFFFF"/>
				<stop  offset="1" style="stop-color:#FFFFFF;stop-opacity:0"/>
			</radialGradient>
			<path style="fill:url(#SVGID_00000048471595469563488360000004285713657610430138_);" d="M5.3,12.2c-0.3,0.5-1.1,0.5-1.8-0.1
				c-0.7-0.5-1.1-1.4-0.8-1.9s1.1-0.5,1.8,0.1C5.1,10.8,5.5,11.6,5.3,12.2z"/>
		</g>
		<g>
			<g>
				
					<radialGradient id="SVGID_00000114794763975090612510000001820169033489438906_" cx="19.9372" cy="32.3137" r="15.7003" gradientTransform="matrix(1 0 0 -1 0 49.8898)" gradientUnits="userSpaceOnUse">
					<stop  offset="0" style="stop-color:#FFFFFF"/>
					<stop  offset="0.2301" style="stop-color:#FFFFFF"/>
					<stop  offset="1" style="stop-color:#FFFFFF;stop-opacity:0"/>
				</radialGradient>
				<path style="fill:url(#SVGID_00000114794763975090612510000001820169033489438906_);" d="M37.2,12.5c0.4-0.6,0.8-1.2,1.2-1.7
					c-6.8,5.5-12.3,11.5-16.7,17c0.2,0.1,0.3,0.2,0.5,0.4C26.3,23.1,31.2,17.6,37.2,12.5z"/>
				
					<radialGradient id="SVGID_00000144325576778759994700000009908451450935632568_" cx="19.9372" cy="32.3136" r="15.7003" gradientTransform="matrix(1 0 0 -1 0 49.8898)" gradientUnits="userSpaceOnUse">
					<stop  offset="0" style="stop-color:#FFFFFF"/>
					<stop  offset="0.2301" style="stop-color:#FFFFFF"/>
					<stop  offset="1" style="stop-color:#FFFFFF;stop-opacity:0"/>
				</radialGradient>
				<path style="fill:url(#SVGID_00000144325576778759994700000009908451450935632568_);" d="M9.3,47.5H10
					c1.2-2.4,4.6-9.1,10.6-17.1c-0.2-0.1-0.3-0.2-0.5-0.4C14,38.1,10.5,45,9.3,47.5z"/>
				
					<radialGradient id="SVGID_00000023278659851348836930000007872824642027067827_" cx="35.6244" cy="30.6127" r="21.3937" gradientTransform="matrix(1 0 0 -1 0 49.8898)" gradientUnits="userSpaceOnUse">
					<stop  offset="0" style="stop-color:#FFFFFF"/>
					<stop  offset="0.2301" style="stop-color:#FFFFFF"/>
					<stop  offset="1" style="stop-color:#FFFFFF;stop-opacity:0"/>
				</radialGradient>
				<path style="fill:url(#SVGID_00000023278659851348836930000007872824642027067827_);" d="M51.6,9c0.6-1,1.1-1.9,1.6-2.7
					c-9.2,9.5-15.8,20.3-20,28.6c0.2,0.1,0.5,0.2,0.7,0.4C37.7,27.7,43.6,18,51.6,9z"/>
			</g>
			
				<linearGradient id="SVGID_00000062179094073740409320000000247145818259977400_" gradientUnits="userSpaceOnUse" x1="45.1718" y1="-35.1577" x2="91.9686" y2="-35.1577" gradientTransform="matrix(1.1233 0.1784 8.740000e-02 -0.8799 -43.317 -12.0331)">
				<stop  offset="0" style="stop-color:#DBDCDC"/>
				<stop  offset="0.9988" style="stop-color:#595757"/>
			</linearGradient>
			<path style="fill:url(#SVGID_00000062179094073740409320000000247145818259977400_);" d="M55.9,44.9c-3.1,3.3-15.8-0.4-29.2-9.2
				C15.9,28.4,8.4,20.2,5.5,15.4c4.1,5,11.1,11.8,20.9,18.2C38.6,41.6,50.6,45.8,55.9,44.9z"/>
			
				<radialGradient id="SVGID_00000094605385958350817740000007970972629124097410_" cx="85.3178" cy="-87.1212" r="36.1803" gradientTransform="matrix(0.9847 0.1611 7.790000e-02 -0.8013 -27.6375 -38.7175)" gradientUnits="userSpaceOnUse">
				<stop  offset="0" style="stop-color:#D2ECFA"/>
				<stop  offset="0.2256" style="stop-color:#009FE8"/>
				<stop  offset="0.4552" style="stop-color:#0068B6"/>
				<stop  offset="0.6604" style="stop-color:#004DA0"/>
				<stop  offset="1" style="stop-color:#1D2087"/>
			</radialGradient>
			<path style="fill:url(#SVGID_00000094605385958350817740000007970972629124097410_);" d="M60.6,41.6c-2.4,4-16.8,0.5-31.6-8
				C18.4,27.6,10.9,20.8,5.8,15c5.6,4.8,10,7.8,20.1,13.5C38.7,35.8,50,38.4,52.2,35c0,0,0.1-0.1,0.1-0.2c0.3-0.7,0.3-1.5,0-2.5
				c-0.6-1.9-1.9-4.6-6.5-8.7C57.1,31.1,62.8,38.1,60.6,41.6z"/>
			
				<radialGradient id="SVGID_00000159467120341775152760000009672168059408120464_" cx="90.0862" cy="-84.2054" r="12.5242" gradientTransform="matrix(0.9847 0.1611 7.790000e-02 -0.8013 -27.6375 -38.7175)" gradientUnits="userSpaceOnUse">
				<stop  offset="0" style="stop-color:#FFFFFF"/>
				<stop  offset="0.2301" style="stop-color:#FFFFFF"/>
				<stop  offset="1" style="stop-color:#FFFFFF;stop-opacity:0"/>
			</radialGradient>
			<path style="fill:url(#SVGID_00000159467120341775152760000009672168059408120464_);" d="M53.1,42.6c-6.3-0.9-15.2-4.4-23.8-9.3
				C21.8,29,16.6,25,12.8,21c3.3,2.8,6.9,4.6,12.8,8c7.5,4.3,14.8,7.1,20.2,7.9c4.6,0.7,6.4-0.5,7-1.5l0,0c0,0,0.1-0.1,0.1-0.3
				c0.4-0.7,0.4-1.7,0-2.8c-0.4-1.2-1-2.8-2.8-4.9c7.8,6,11.6,11.3,9.9,14.1C59.2,42.7,56.8,43.1,53.1,42.6z"/>
			<g>
				
					<radialGradient id="SVGID_00000162352713625748613280000015035992700040058814_" cx="87.8354" cy="-86.4956" r="18.4689" gradientTransform="matrix(0.9847 0.1611 7.790000e-02 -0.8013 -27.6375 -38.7175)" gradientUnits="userSpaceOnUse">
					<stop  offset="0" style="stop-color:#FFFFFF"/>
					<stop  offset="0.2301" style="stop-color:#FFFFFF"/>
					<stop  offset="1" style="stop-color:#FFFFFF;stop-opacity:0"/>
				</radialGradient>
				<path style="fill:url(#SVGID_00000162352713625748613280000015035992700040058814_);" d="M55.7,32.1c3.1,3.4,4.3,6.3,3.2,8.1
					c-0.8,1.3-3.3,1.7-6.9,1.2c-6.3-0.9-15.2-4.4-23.8-9.3c-6.3-3.6-10.3-7.1-14.3-10.2c4.2,3.4,8.5,7.4,15.5,11.4
					c8.6,4.9,17.5,8.4,23.8,9.3c3.7,0.5,6.1,0.1,6.9-1.2C61.3,39.4,59.6,36,55.7,32.1z"/>
			</g>
		</g>
	</g>
	<g>
		<path class="st16" d="M87.6,30.5l0.3-1.8h-3.6l0.4-2.6h-1.8l-0.4,2.6h-1.2c0.2-0.6,0.5-1.1,0.7-1.7v-0.1l-2-0.3v0.1
			c-0.5,1.4-1.1,2.8-2,4l0.2-1.5h-2.1l0.4-3.1h-1.8l-0.4,3.1h-2.5L71.6,31h2.2c-0.9,2.1-2,4-3.3,5.4l0,0l0.5,2.3l0.1-0.1
			c0.9-1.1,1.8-2.6,2.4-3.9l-1.1,7.6h1.8l1-7.2c0.3,0.7,0.6,1.3,0.9,1.7l0.1,0.1l1.4-1.7l0,0c-0.7-0.9-1.5-1.9-1.9-2.9l0.2-1.3h1.9
			c-0.1,0.1-0.2,0.3-0.4,0.4l-0.2,0.2l1.6,1h0.1l0,0c0.6-0.7,1-1.3,1.4-2.1h1.8l-0.3,2.3h-4.2l-0.3,1.9H81c-1.3,1.8-2.9,3.3-5.1,4.6
			h-0.1l1,1.7h0.1c1.8-1.3,3.1-2.5,4.3-4.1l-0.8,5.5h1.8l0.8-5.5c0.5,1.6,1.4,2.9,2.6,4.2l0.1,0.1l1.2-2l0,0c-1.5-1.3-2.2-2.4-3-4.4
			h3.4l0.3-1.9h-4l0.3-2.3L87.6,30.5L87.6,30.5z"/>
		<path class="st16" d="M106.6,27.6L106.6,27.6c-0.8-0.7-1.7-1.3-2.6-1.7l0,0l-1.3,1.4h0.1c0.8,0.4,1.5,0.8,2.2,1.4h-2.8
			c0.1-0.9,0.2-1.7,0.3-2.6V26h-2v0.1c-0.1,0.4-0.1,0.9-0.2,1.3s-0.1,0.9-0.2,1.3h-9l-0.3,1.9h9.1c-0.3,2.6-0.5,6.3,0.6,9
			c0.3,0.8,1.2,2.6,2.8,2.6c1.6,0,2.5-2.7,2.8-3.9v-0.1l-1.6-1v0.1c-0.1,0.6-0.3,1.1-0.5,1.6c-0.3,0.6-0.5,0.9-0.7,0.9
			c-0.4,0-0.8-0.8-0.9-1.1c-0.9-2.3-0.8-5.6-0.6-8.2h5.1l0.3-1.9h-1.8L106.6,27.6z"/>
		<path class="st16" d="M90.6,34.5H94l-0.7,4.8c-0.4,0.1-0.8,0.1-1.2,0.2c-0.8,0.1-1.6,0.2-2.4,0.3h-0.1v1.9h0.1
			c3.4-0.4,6.3-0.9,9-1.5l0,0l0.2-1.8h-0.1c-1.1,0.2-2.3,0.4-3.7,0.6l0.6-4.6H99l0.3-1.8h-8.4L90.6,34.5z"/>
		<path class="st16" d="M108.6,36.1h4.4c-0.7,1.4-1.4,2.7-2.2,3.9c-0.8,0-1.6,0-2.4,0h-0.1v1.9h0.1c2.1,0,4-0.1,5.7-0.2
			c2.5-0.1,4.6-0.3,6.5-0.5c0.2,0.4,0.4,0.7,0.5,1.1v0.1l1.9-1.1v-0.1c-0.7-1.7-1.8-3.3-3.3-5l0,0l-1.7,1l0.1,0.1
			c0.6,0.7,1.1,1.5,1.6,2.3c-2.2,0.1-4.5,0.2-6.8,0.2c0.8-1.2,1.5-2.4,2.2-3.6l0.1-0.2h9l0.3-1.8h-15.6L108.6,36.1z"/>
		<path class="st16" d="M121.8,29.1c-1.3-1-2.3-2-2.9-3.1l0,0h-2l0,0c-0.9,1.1-2.1,2.1-3.7,3.1c-1.4,0.9-3,1.7-4.4,2.1h-0.1l0.8,1.8
			h0.1c1.1-0.5,2-0.9,2.9-1.4l-0.1,0.9h9.2l0.1-0.9c0.7,0.5,1.5,1,2.5,1.5h0.1l1.4-1.8l0.1-0.1h-0.1
			C124.2,30.6,122.9,29.9,121.8,29.1z M113.9,30.7c1.4-1,2.6-1.9,3.8-3.1c0.9,1.2,1.9,2.3,2.9,3.1H113.9z"/>
		<path class="st16" d="M132.9,37.1L132.9,37.1l1.2-1.7l0,0c-0.9-0.7-1.3-1.1-2.1-2.1c0.9-1,1.4-1.8,2.1-2.9l0.3-1.8h-2l0.4-2.7
			h-1.9l-0.4,2.7h-2.6l-0.3,1.8h4.4c-1.1,1.9-3,3.6-5.3,4.9l0,0l0.5,1.9h0.1c0.8-0.4,1.4-0.9,2.2-1.5l-0.9,6.5h1.9l1-6.8
			C131.9,36.1,132.3,36.6,132.9,37.1z"/>
		<polygon class="st16" points="140.4,26 138.5,26 137.8,30.9 134.2,30.9 133.9,32.8 137.5,32.8 136.5,39.8 132.2,39.8 131.9,41.7 
			142.3,41.7 142.5,39.8 138.5,39.8 139.4,32.8 143.1,32.8 143.4,30.9 139.7,30.9 		"/>
		<polygon class="st16" points="169.9,30.8 157.3,30.8 158.8,19.5 153.9,19.5 150.1,46.8 155,46.8 156.6,35.3 169.3,35.3 
			167.7,46.8 172.6,46.8 176.5,19.5 171.5,19.5 		"/>
		<polygon class="st16" points="214.5,46.7 219.2,46.7 222.1,26.7 217.4,26.7 		"/>
		<polygon class="st16" points="245.7,19.4 226.2,19.4 225.6,23.8 232.8,23.9 229.6,46.8 234.5,46.8 237.8,23.9 245.1,23.9 		"/>
		<path class="st16" d="M187.7,28.8c-2.7,0-5.2,1-7.2,3c-1.9,1.8-3,3.9-3.3,6.4s0.2,4.7,1.7,6.5c1.5,1.9,3.6,2.8,6.4,2.8
			c2.7,0,5.1-0.9,7-2.8c2-1.8,3.1-4,3.5-6.5c0.3-2.5-0.2-4.6-1.6-6.5C192.6,29.8,190.4,28.8,187.7,28.8z M188.2,42.5
			c-1.6,0.9-3.6,0.9-4.9,0c-0.7-0.4-1.2-1-1.5-1.8s-0.4-1.6-0.3-2.5c0.2-1.4,0.9-2.6,2-3.6s2.3-1.5,3.7-1.5c1.3,0,2.4,0.5,3.2,1.5
			s1.1,2.2,0.9,3.6c-0.1,0.9-0.5,1.8-1,2.6C189.7,41.5,189,42.1,188.2,42.5z"/>
		<path class="st16" d="M210.7,27.2c-1.4,0-2.8,0.4-4.2,1.3l0,0c-0.6,0.4-1.3,0.8-1.9,1.4l0.4-2.8h-4.6l-2.8,19.8h4.7l1.5-10.8
			c0.7-1.3,1.5-2.3,2.4-3c1.2-0.9,2.3-1.4,3.4-1.4c0.5,0,1,0.2,1.7,0.5l0.3,0.1l2.8-3.7l-0.4-0.3C212.9,27.5,211.8,27.2,210.7,27.2z
			"/>
		<path class="st16" d="M220.8,18.3L220.8,18.3c-0.9,0-1.7,0.3-2.5,1c-0.7,0.6-1.2,1.4-1.3,2.4c-0.1,0.9,0.1,1.7,0.7,2.4
			c0.6,0.7,1.3,1,2.3,1l0,0c0.9,0,1.7-0.3,2.5-1c0.7-0.6,1.2-1.4,1.3-2.3s-0.1-1.8-0.7-2.4C222.6,18.7,221.8,18.3,220.8,18.3z"/>
		<path class="st16" d="M251,28.8c-2.9,0-5.4,1.1-7.5,3.3c-1.6,1.7-2.6,3.7-2.9,6c-0.3,2.4,0.2,4.5,1.5,6.4c1.4,1.9,3.6,2.9,6.5,2.9
			c1.3,0,2.5-0.2,3.5-0.6c1.1-0.4,2.1-1,3-1.7s1.8-1.7,2.6-2.9l0.3-0.4l-3.3-1.9l-0.2,0.3c-0.7,0.9-1.3,1.6-1.8,2s-1.1,0.7-1.8,0.9
			s-1.4,0.4-2.1,0.4c-1.4,0-2.4-0.5-3.2-1.4c-0.6-0.8-0.9-1.7-1-2.8h14.1l0.1-1l0,0c0.3-2.4-0.1-4.4-1.1-6.1
			C256.3,30,254,28.8,251,28.8z M245.8,35.5c0.4-0.6,0.8-1.1,1.3-1.4c1.1-0.8,2.2-1.2,3.5-1.2c0.8,0,1.5,0.2,2.2,0.5
			c0.6,0.3,1.1,0.7,1.5,1.3c0.2,0.3,0.3,0.6,0.4,1L245.8,35.5z"/>
		<path class="st16" d="M268.1,34.4c1.2-1.1,2.7-1.6,4.3-1.6v-0.4v0.4c2.1,0,3.5,0.8,4.5,2.3l0.5,0.8l3.5-2l-0.4-0.9
			c-0.4-0.9-1-1.7-1.7-2.3c-0.7-0.6-1.6-1.1-2.6-1.4c-1-0.4-2.1-0.5-3.3-0.5c-1.8,0-3.5,0.4-5.1,1.2c-1.6,0.8-3,2-4,3.4
			c-1.1,1.5-1.7,3.1-2,4.8c-0.4,2.6,0.3,4.8,1.9,6.6s3.8,2.7,6.6,2.7c1.8,0,3.4-0.3,4.9-1s2.8-1.7,3.8-3l0.7-0.9l-3-2.2l-0.7,0.7
			c-1.5,1.6-3.2,2.4-5.3,2.4c-1.1,0-2-0.2-2.8-0.7s-1.3-1.1-1.7-1.9c-0.4-0.8-0.5-1.8-0.3-2.7C266.1,36.7,266.8,35.4,268.1,34.4z"/>
		<path class="st16" d="M299,32.1L299,32.1c-0.3-1.2-1-2.2-2-2.9c-1-0.7-2.2-1.1-3.6-1.1l0,0c-1.3,0-2.6,0.3-3.9,0.9
			c-0.1,0.1-0.2,0.1-0.3,0.2l1.4-9.9h-4.9l-4,27.6h4.9l1.9-13c0,0,0,0,0.1-0.1c1-0.7,2.1-1.1,3.2-1.1l0,0c0.9,0,1.7,0.2,2.2,0.7
			c0.5,0.4,0.8,1.1,0.9,2.1c0.1,0.6,0,1.7-0.3,3.5l-1.1,8h4.3l1.3-9.4C299.4,35.1,299.4,33.3,299,32.1z"/>
	</g>
</g>
</svg>
