<?xml version="1.0" encoding="UTF-8"?><svg id="_レイヤー_2" xmlns="http://www.w3.org/2000/svg" xmlns:xlink="http://www.w3.org/1999/xlink" viewBox="0 0 408.16627 82"><defs><style>.cls-1{fill:url(#_名称未設定グラデーション_16-3);}.cls-1,.cls-2,.cls-3,.cls-4,.cls-5,.cls-6,.cls-7,.cls-8,.cls-9,.cls-10,.cls-11,.cls-12,.cls-13,.cls-14,.cls-15,.cls-16,.cls-17{stroke-width:0px;}.cls-2{fill:url(#_名称未設定グラデーション_13);}.cls-3{fill:url(#_名称未設定グラデーション_16-4);}.cls-4{fill:url(#_名称未設定グラデーション_14-4);}.cls-5{fill:url(#_名称未設定グラデーション_16-2);}.cls-6{fill:#1b258a;}.cls-7{fill:url(#_名称未設定グラデーション_14-5);}.cls-8{fill:url(#_名称未設定グラデーション_16-8);}.cls-9{fill:url(#_名称未設定グラデーション_16-7);}.cls-10{fill:url(#_名称未設定グラデーション_16-6);}.cls-11{fill:url(#_名称未設定グラデーション_14);}.cls-12{fill:url(#_名称未設定グラデーション_14-3);}.cls-13{fill:url(#_名称未設定グラデーション_16-9);}.cls-14{fill:url(#_名称未設定グラデーション_16);}.cls-15{fill:url(#_名称未設定グラデーション_16-5);}.cls-16{fill:url(#_名称未設定グラデーション_14-2);}.cls-17{fill:url(#_名称未設定グラデーション_14-6);}</style><radialGradient id="_名称未設定グラデーション_14" cx="44.04906" cy="1242.11489" fx="44.04906" fy="1242.11489" r="51.54415" gradientTransform="translate(0 -1230.1102)" gradientUnits="userSpaceOnUse"><stop offset="0" stop-color="#d2ecfa"/><stop offset=".2256" stop-color="#009fe8"/><stop offset=".4552" stop-color="#0068b6"/><stop offset=".6604" stop-color="#004da0"/><stop offset="1" stop-color="#1d2087"/></radialGradient><radialGradient id="_名称未設定グラデーション_14-2" cx="44.04906" fx="44.04906" r="51.54401" xlink:href="#_名称未設定グラデーション_14"/><radialGradient id="_名称未設定グラデーション_14-3" cx="79.42878" cy="1234.29092" fx="79.42878" fy="1234.29092" r="64.5281" xlink:href="#_名称未設定グラデーション_14"/><radialGradient id="_名称未設定グラデーション_14-4" cx="79.42878" cy="1234.29092" fx="79.42878" fy="1234.29092" r="64.52796" xlink:href="#_名称未設定グラデーション_14"/><radialGradient id="_名称未設定グラデーション_16" cx="34.77192" cy="1258.36461" fx="34.77192" fy="1258.36461" r="10.00979" gradientTransform="translate(0 -1230.1102)" gradientUnits="userSpaceOnUse"><stop offset="0" stop-color="#fff"/><stop offset=".2301" stop-color="#fff"/><stop offset="1" stop-color="#fff" stop-opacity="0"/></radialGradient><radialGradient id="_名称未設定グラデーション_16-2" cx="51.5739" cy="1262.33916" fx="51.5739" fy="1262.33916" r="9.85245" xlink:href="#_名称未設定グラデーション_16"/><radialGradient id="_名称未設定グラデーション_14-5" cx="-603.8705" cy="408.88233" fx="-603.8705" fy="408.88233" r="4.79659" gradientTransform="translate(664.49733 -101.8895) rotate(25.43916) scale(1.04923 .95304) skewX(11.45985)" xlink:href="#_名称未設定グラデーション_14"/><radialGradient id="_名称未設定グラデーション_16-3" cx="-603.07301" cy="414.14111" fx="-603.07301" fy="414.14111" r="2.86813" gradientTransform="translate(664.49733 -101.8895) rotate(25.43916) scale(1.04923 .95304) skewX(11.45985)" xlink:href="#_名称未設定グラデーション_16"/><radialGradient id="_名称未設定グラデーション_16-4" cx="-799.56665" cy="51.63597" fx="-799.56665" fy="51.63597" r="1.04542" gradientTransform="translate(1422.14932 989.3352) rotate(36.82065) scale(2.16398 1.35338) skewX(6.00401)" xlink:href="#_名称未設定グラデーション_16"/><radialGradient id="_名称未設定グラデーション_16-5" cx="26.42736" cy="1254.21485" fx="26.42736" fy="1254.21485" r="21.42472" xlink:href="#_名称未設定グラデーション_16"/><radialGradient id="_名称未設定グラデーション_16-6" cx="26.42736" cy="1254.21499" fx="26.42736" fy="1254.21499" r="21.42472" xlink:href="#_名称未設定グラデーション_16"/><radialGradient id="_名称未設定グラデーション_16-7" cx="47.8342" cy="1256.53604" fx="47.8342" fy="1256.53604" r="29.19396" xlink:href="#_名称未設定グラデーション_16"/><linearGradient id="_名称未設定グラデーション_13" x1="-47.75089" y1="1187.00381" x2="16.10828" y2="1187.00381" gradientTransform="translate(162.54197 -999.01487) rotate(9.02422) scale(1.13738 .88272) skewX(2.6024)" gradientUnits="userSpaceOnUse"><stop offset="0" stop-color="#dbdcdc"/><stop offset=".9988" stop-color="#595757"/></linearGradient><radialGradient id="_名称未設定グラデーション_14-6" cx="154.29028" cy="1275.34152" fx="154.29028" fy="1275.34152" r="49.37184" gradientTransform="translate(14.30874 -985.48172) rotate(9.29145) scale(.99779 .80336) skewX(3.01175)" xlink:href="#_名称未設定グラデーション_14"/><radialGradient id="_名称未設定グラデーション_16-8" cx="160.79725" cy="1271.3626" fx="160.79725" fy="1271.3626" r="17.09059" gradientTransform="translate(14.30874 -985.48172) rotate(9.29145) scale(.99779 .80336) skewX(3.01175)" xlink:href="#_名称未設定グラデーション_16"/><radialGradient id="_名称未設定グラデーション_16-9" cx="157.72581" cy="1274.48781" fx="157.72581" fy="1274.48781" r="25.20276" gradientTransform="translate(14.30874 -985.48172) rotate(9.29145) scale(.99779 .80336) skewX(3.01175)" xlink:href="#_名称未設定グラデーション_16"/></defs><path class="cls-11" d="M57.35314,9.39952c-12.28145,8.86994-21.83369,18.96802-29.20256,28.11088,2.31983,1.63753,4.77612,3.41151,7.36887,5.04904,9.55224-18.83156,21.83369-33.15992,21.83369-33.15992Z"/><path class="cls-16" d="M10.41071,65.89419h16.2388c1.63753-6.82303,4.23028-13.37313,7.09595-19.65032-2.86567-1.91045-5.45842-3.82089-7.91471-5.73134-10.64392,14.05544-15.42004,25.38166-15.42004,25.38166Z"/><path class="cls-12" d="M35.51945,65.89419h16.23881c.40938-3.00213.95522-6.00427,1.63753-8.73348-3.68444-1.50106-7.64179-3.54797-11.59915-5.8678-4.23028,8.59701-6.27719,14.60128-6.27719,14.60128Z"/><path class="cls-4" d="M77.68576,1.89419c-16.23881,14.46482-27.29211,32.34115-33.97868,45.44136,3.68444,1.91045,7.36887,3.54797,10.91684,4.91258C62.12926,21.95389,77.68576,1.89419,77.68576,1.89419Z"/><path class="cls-14" d="M51.75826,14.85794c-9.27932,7.50533-16.78465,15.69296-22.78891,23.19829,1.91045,1.36461,3.82089,2.59275,5.73134,3.95736,5.73134-11.46269,12.55437-21.15138,17.05757-27.15565Z"/><path class="cls-5" d="M71.81796,8.71722c-12.55437,12.96375-21.56077,27.70149-27.29211,39.02772,3.00213,1.50106,6.14072,2.86567,9.14286,4.09382,4.77612-19.24094,12.96375-34.52452,18.14925-43.12154Z"/><path class="cls-7" d="M7.27212,18.54238c-.40938,1.91045-2.31983,2.59275-4.09382,1.77399-1.91045-.81876-3.00213-3.13859-2.59275-4.91258.40938-1.91045,2.31983-2.59275,4.09382-1.77399,1.91045.81876,3.00213,3.00213,2.59275,4.91258Z"/><path class="cls-1" d="M.72201,15.94963c-.13646,1.63753.95522,3.41151,2.45629,4.09382,1.50107.6823,3.13859.27292,3.68444-1.22814-.81876.40938-2.04691.27292-3.27505-.27292-1.22815-.6823-2.18337-1.50107-2.86567-2.59275Z"/><path class="cls-3" d="M6.45336,16.76839c-.40938.6823-1.50107.6823-2.45629-.13646-.95522-.6823-1.50107-1.91045-1.09168-2.59275s1.50107-.6823,2.45629.13646c.81876.6823,1.36461,1.77399,1.09168,2.59275Z"/><path class="cls-15" d="M49.98427,17.17777c.54584-.81876,1.09168-1.63753,1.63753-2.31983-9.27932,7.50533-16.78465,15.69296-22.78891,23.19829.27292.13646.40938.27292.6823.54584,5.59488-6.95949,12.28145-14.46482,20.46908-21.42431Z"/><path class="cls-10" d="M11.91178,64.93897h.95522c1.63753-3.27506,6.27719-12.41791,14.46482-23.33475-.27292-.13646-.40938-.27292-.6823-.54584-8.32409,11.0533-13.10021,20.46908-14.73774,23.8806Z"/><path class="cls-9" d="M69.63459,12.40165c.81876-1.36461,1.50106-2.59275,2.18337-3.68443-12.55437,12.96375-21.56077,27.70149-27.29211,39.02772.27292.13646.6823.27292.95522.54584,5.18551-10.37101,13.23667-23.60768,24.15352-35.88913Z"/><path class="cls-2" d="M75.5024,61.39099c-4.23028,4.5032-21.56077-.54584-39.84648-12.55437-14.73774-9.96162-24.97228-21.15139-28.92964-27.70149,5.59488,6.82303,15.14712,16.10235,28.52025,24.83582,16.64819,10.91684,33.02345,16.64819,40.25587,15.42005Z"/><path class="cls-17" d="M81.91604,56.88779c-3.27506,5.45842-22.92537.6823-43.12153-10.91684-14.46482-8.18763-24.69936-17.46695-31.65885-25.38166,7.64179,6.55011,13.64606,10.64392,27.42857,18.42217,17.46695,9.96162,32.88699,13.5096,35.88912,8.86994,0,0,.13646-.13646.13646-.27292.40938-.95522.40938-2.04691,0-3.41151-.81876-2.59275-2.59275-6.27719-8.86994-11.87207,15.42004,10.23454,23.19829,19.78678,20.19616,24.5629Z"/><path class="cls-8" d="M71.6815,58.2524c-8.59701-1.22815-20.742-6.00427-32.47761-12.69083-10.23454-5.8678-17.33049-11.32622-22.51599-16.78465,4.5032,3.82089,9.41578,6.27719,17.46695,10.91684,10.23454,5.8678,20.19616,9.6887,27.56504,10.78039,6.27718.95522,8.73348-.6823,9.55224-2.04691h0s.13646-.13646.13646-.40938c.54584-.95522.54584-2.31983,0-3.82089-.54584-1.63753-1.36461-3.82089-3.82089-6.68657,10.64392,8.18763,15.82943,15.42004,13.50959,19.24094-1.09168,1.63752-4.36674,2.18336-9.41578,1.50106Z"/><path class="cls-13" d="M75.22948,43.92404c4.23028,4.63966,5.8678,8.59701,4.36674,11.0533-1.09168,1.77399-4.5032,2.31983-9.41578,1.63753-8.59701-1.22815-20.742-6.00427-32.47761-12.69083-8.59701-4.91258-14.05544-9.6887-19.51386-13.91898,5.73134,4.63966,11.59915,10.09808,21.15139,15.5565,11.73561,6.68657,23.8806,11.46269,32.47761,12.69083,5.04904.6823,8.32409.13646,9.41578-1.63753,1.63752-2.7292-.68231-7.36886-6.00427-12.69083Z"/><path class="cls-6" d="M118.76039,41.74067l.40939-2.45629h-4.91258l.54584-3.54797h-2.45629l-.54584,3.54797h-1.63752c.27292-.81876.6823-1.50107.95522-2.31983v-.13646l-2.72921-.40938v.13646c-.6823,1.91045-1.50106,3.82089-2.72921,5.45842l.27292-2.04691h-2.86567l.54584-4.23028h-2.45629l-.54584,4.23028h-3.41151l-.27292,2.45629h3.00213c-1.22815,2.86567-2.72921,5.45842-4.5032,7.36887h0l.6823,3.13859.13646-.13646c1.22815-1.50106,2.45629-3.54797,3.27506-5.32196l-1.50106,10.371h2.45629l1.36461-9.82516c.40939.95522.81876,1.77399,1.22815,2.31983l.13646.13646,1.91045-2.31983h0c-.95522-1.22815-2.04691-2.59275-2.59275-3.95736l.27292-1.77399h2.59275c-.13646.13646-.27292.40938-.54584.54584l-.27292.27292,2.18337,1.36461h.13646c.81876-.95522,1.36461-1.77399,1.91045-2.86567h2.45629l-.40939,3.13859h-5.73134l-.40939,2.59275h5.04905c-1.77399,2.45629-3.95736,4.5032-6.95949,6.27718h-.13646l1.36461,2.31983h.13646c2.45629-1.77399,4.23028-3.41151,5.86781-5.59488l-1.09169,7.50533h2.45629l1.09169-7.50533c.6823,2.18337,1.91045,3.95736,3.54797,5.73134l.13646.13646,1.63752-2.72921h0c-2.04691-1.77399-3.00213-3.27506-4.09382-6.00427h4.63966l.40939-2.59275h-5.45842l.40939-3.13859,5.04903-.13646h0Z"/><path class="cls-6" d="M144.68789,37.78332h0c-1.09169-.95522-2.31983-1.77399-3.54797-2.31983h0l-1.77399,1.91045h.13646c1.09169.54584,2.04691,1.09168,3.00213,1.91045h-3.8209c.13646-1.22814.27292-2.31983.40939-3.54797v-.13646h-2.72921v.13646c-.13646.54584-.13646,1.22814-.27292,1.77399s-.13646,1.22814-.27292,1.77399h-12.28145l-.40939,2.59275h12.41791c-.40939,3.54797-.6823,8.59701.81876,12.28145.40939,1.09168,1.63752,3.54797,3.8209,3.54797s3.41151-3.68444,3.8209-5.32196v-.13646l-2.18337-1.36461v.13646c-.13646.81876-.40939,1.50106-.6823,2.18337-.40939.81876-.6823,1.22815-.95522,1.22815-.54584,0-1.09169-1.09168-1.22815-1.50106-1.22815-3.13859-1.09169-7.64179-.81876-11.18977h6.95949l.40939-2.59275h-2.45629l1.63752-1.3646Z"/><path class="cls-6" d="M122.85421,47.19909h4.63966l-.95522,6.55011c-.54584.13646-1.09169.13646-1.63752.27292-1.09169.13646-2.18337.27292-3.27506.40938h-.13646v2.59275h.13646c4.63966-.54584,8.59702-1.22815,12.28145-2.04691h0l.27292-2.45629h-.13646c-1.50106.27292-3.1386.54584-5.04904.81876l.81876-6.27718h4.50319l.40939-2.45629h-11.46269l-.40939,2.59275Z"/><path class="cls-6" d="M147.4171,49.38246h6.00427c-.95522,1.91045-1.91045,3.68444-3.00213,5.32196h-3.41151v2.59275h.13646c2.86567,0,5.45842-.13646,7.77825-.27292,3.41151-.13646,6.27718-.40938,8.86994-.6823.27292.54584.54584.95522.6823,1.50106v.13646l2.59275-1.50106v-.13646c-.95522-2.31983-2.45629-4.5032-4.5032-6.82303h0l-2.31983,1.36461.13646.13646c.81876.95522,1.50106,2.04691,2.18337,3.13859-3.00213.13646-6.14072.27292-9.27932.27292,1.09169-1.63753,2.04691-3.27506,3.00213-4.91258l.13646-.27292h12.28145l.40939-2.45629h-21.28784l-.40938,2.59275Z"/><path class="cls-6" d="M165.4299,39.83023c-1.77399-1.36461-3.1386-2.72921-3.95736-4.23028h-2.72921c-1.22815,1.50107-2.86567,2.86567-5.04904,4.23028-1.91045,1.22814-4.09382,2.31983-6.00427,2.86567h-.13646l1.09169,2.45629h.13646c1.50106-.6823,2.72921-1.22815,3.95736-1.91045l-.13646,1.22814h12.55437l.13646-1.22814c.95522.6823,2.04691,1.3646,3.41151,2.04691h.13646l1.91045-2.45629.13646-.13646h-.13646c-2.04692-.81876-3.8209-1.77399-5.32196-2.86567ZM154.64952,42.01359c1.91045-1.36461,3.54797-2.59275,5.18551-4.23028,1.22815,1.63753,2.59275,3.13859,3.95736,4.23028h-9.14286Z"/><path class="cls-6" d="M180.57701,50.74707h0l1.63752-2.31983h0c-1.22814-.95522-1.77399-1.50106-2.86568-2.86567,1.22814-1.36461,1.91044-2.45629,2.86568-3.95736l.40939-2.45629h-2.72921l.54583-3.68444h-2.59274l-.54583,3.68444h-3.54797l-.40939,2.45629h6.00427c-1.50107,2.59275-4.09382,4.91258-7.23241,6.68657h0l.6823,2.59275h.13646c1.09168-.54584,1.91045-1.22815,3.00214-2.04691l-1.22814,8.86994h2.59274l1.36461-9.27932c.54583.95522,1.09169,1.63752,1.91044,2.31983Z"/><polygon class="cls-6" points="190.81155 35.59995 188.21881 35.59995 187.26359 42.28651 182.351 42.28651 181.94162 44.87926 186.85421 44.87926 185.4896 54.4315 179.62179 54.4315 179.21241 57.02426 193.40432 57.02426 193.67723 54.4315 188.21881 54.4315 189.44695 44.87926 194.49601 44.87926 194.90537 42.28651 189.85633 42.28651 190.81155 35.59995"/><polygon class="cls-6" points="231.06742 42.15005 213.8734 42.15005 215.92031 26.73001 209.23373 26.73001 204.04824 63.98374 210.7348 63.98374 212.91818 48.29078 230.24867 48.29078 228.06529 63.98374 234.75187 63.98374 240.07382 26.73001 233.25079 26.73001 231.06742 42.15005"/><polygon class="cls-6" points="291.92883 63.84728 298.34247 63.84728 302.29984 36.55517 295.88618 36.55517 291.92883 63.84728"/><polygon class="cls-6" points="334.50452 26.59355 307.89471 26.59355 307.07596 32.59781 316.90112 32.73428 312.53438 63.98374 319.22094 63.98374 323.72414 32.73428 333.68577 32.73428 334.50452 26.59355"/><path class="cls-6" d="M255.3574,39.42084c-3.68443,0-7.09594,1.36461-9.82516,4.09382-2.59274,2.45629-4.09382,5.32196-4.5032,8.73348s.27292,6.41365,2.31983,8.86994c2.04691,2.59275,4.91259,3.82089,8.73347,3.82089,3.68443,0,6.9595-1.22815,9.55224-3.82089,2.72921-2.45629,4.23029-5.45842,4.77612-8.86994.40939-3.41151-.27292-6.27718-2.18338-8.86994-2.18334-2.59275-5.18548-3.95736-8.86992-3.95736ZM256.0397,58.11594c-2.18338,1.22815-4.91259,1.22815-6.68656,0-.95522-.54584-1.63752-1.36461-2.04691-2.45629s-.54583-2.18337-.40939-3.41151c.27292-1.91045,1.22814-3.54797,2.72921-4.91258s3.1386-2.04691,5.04904-2.04691c1.77399,0,3.27504.6823,4.36673,2.04691s1.50107,3.00213,1.22814,4.91258c-.13647,1.22815-.6823,2.45629-1.36461,3.54797-.81875.95522-1.77397,1.77399-2.86566,2.31983Z"/><path class="cls-6" d="M286.74333,37.23748c-1.91044,0-3.8209.54584-5.73134,1.77399h0c-.81877.54584-1.77399,1.09168-2.59274,1.91045l.54583-3.82089h-6.27719l-3.8209,27.01919h6.41364l2.04691-14.73774c.95522-1.77399,2.04691-3.13859,3.27504-4.09382,1.63752-1.22815,3.1386-1.91045,4.63965-1.91045.6823,0,1.36461.27292,2.31983.68231l.40939.13646,3.8209-5.04904-.54583-.40938c-1.50105-1.09169-3.00211-1.50107-4.50318-1.50107Z"/><path class="cls-6" d="M300.52585,25.09248h0c-1.22814,0-2.31983.40938-3.41151,1.36461-.95522.81876-1.63752,1.91045-1.77399,3.27505-.13647,1.22814.13647,2.31983.95522,3.27505.81877.95522,1.77399,1.36461,3.1386,1.36461h0c1.22814,0,2.31983-.40938,3.41151-1.36461.95522-.81876,1.63752-1.91045,1.77399-3.13859s-.13647-2.45629-.95522-3.27505c-.6823-.95522-1.77399-1.50107-3.1386-1.50107Z"/><path class="cls-6" d="M341.73693,39.42084c-3.95735,0-7.36886,1.50107-10.23454,4.5032-2.18338,2.31983-3.54798,5.04904-3.95735,8.18763-.40939,3.27506.27292,6.14072,2.04691,8.73348,1.91044,2.59275,4.91259,3.95736,8.86994,3.95736,1.77399,0,3.41151-.27292,4.77612-.81876,1.50107-.54584,2.86568-1.36461,4.09382-2.31983s2.45627-2.31983,3.54798-3.95736l.40936-.54584-4.5032-2.59275-.27292.40938c-.95522,1.22815-1.77399,2.18337-2.45629,2.72921s-1.50107.95522-2.45629,1.22815-1.91044.54584-2.86568.54584c-1.91044,0-3.27504-.6823-4.36673-1.91045-.81877-1.09168-1.22814-2.31983-1.36461-3.82089h19.24093l.13647-1.36461h0c.40936-3.27506-.13647-6.00427-1.50107-8.32409-1.91044-3.00213-5.04902-4.63966-9.14283-4.63966ZM334.64099,48.5637c.54583-.81876,1.09169-1.50106,1.77399-1.91045,1.50107-1.09168,3.00213-1.63753,4.77612-1.63753,1.09169,0,2.04691.27292,3.00213.6823.81877.40938,1.50107.95522,2.04691,1.77399.27292.40938.40939.81876.54583,1.36461l-12.14498-.27292Z"/><path class="cls-6" d="M365.0717,47.06264c1.63754-1.50106,3.68445-2.18337,5.86779-2.18337v-.54584.54584c2.86568,0,4.77612,1.09168,6.14072,3.13859l.6823,1.09168,4.77612-2.72921-.54583-1.22815c-.54583-1.22815-1.36461-2.31983-2.31985-3.13859-.95524-.81876-2.18338-1.50107-3.54798-1.91045-1.36461-.54584-2.86568-.6823-4.50318-.6823-2.45627,0-4.77612.54584-6.9595,1.63753-2.18338,1.09168-4.09382,2.72921-5.45842,4.63966-1.50107,2.04691-2.31985,4.23028-2.72921,6.55011-.54583,3.54797.40936,6.55011,2.59274,9.00639s5.18548,3.68444,9.0064,3.68444c2.45627,0,4.63965-.40938,6.68656-1.36461s3.82088-2.31983,5.18548-4.09382l.95524-1.22815-4.09382-3.00213-.95524.95522c-2.04691,2.18337-4.36675,3.27506-7.23239,3.27506-1.50107,0-2.72921-.27292-3.82088-.95522s-1.77397-1.50106-2.31985-2.59275c-.54583-1.09168-.6823-2.45629-.40936-3.68444.27294-2.0469,1.22814-3.82089,3.00215-5.18549Z"/><path class="cls-6" d="M407.238,43.92404h0c-.40936-1.63753-1.36461-3.00213-2.72921-3.95736-1.36461-.95522-3.00215-1.50107-4.91259-1.50107h0c-1.77397,0-3.54798.40938-5.32195,1.22814-.13647.13646-.27294.13646-.40936.27292l1.91044-13.50959h-6.68656l-5.45842,37.66312h6.68656l2.59274-17.73987.13647-.13646c1.36461-.95522,2.86568-1.50106,4.36675-1.50106h0c1.22814,0,2.31985.27292,3.00215.95522.6823.54584,1.09167,1.50106,1.22814,2.86567.13647.81876,0,2.31983-.40936,4.77612l-1.50107,10.91684h5.86779l1.77397-12.82729c.40936-3.41152.40936-5.86781-.13647-7.50534Z"/></svg>