<?xml version="1.0" encoding="UTF-8"?><svg id="_レイヤー_2" xmlns="http://www.w3.org/2000/svg" xmlns:xlink="http://www.w3.org/1999/xlink" viewBox="0 0 457.8963 82"><defs><style>.cls-1{fill:url(#_名称未設定グラデーション_2);}.cls-1,.cls-2,.cls-3{stroke-width:0px;}.cls-2{fill:#231815;}.cls-3{fill:url(#_名称未設定グラデーション);}</style><linearGradient id="_名称未設定グラデーション" x1="17.89419" y1="179.54979" x2="51.85111" y2="213.5067" gradientTransform="translate(0 241) scale(1 -1)" gradientUnits="userSpaceOnUse"><stop offset=".1" stop-color="#1c8d3b"/><stop offset=".5" stop-color="#1086ad"/><stop offset=".85" stop-color="#09b5e0"/></linearGradient><linearGradient id="_名称未設定グラデーション_2" x1="15.57039" y1="175.23429" x2="63.43776" y2="223.10166" gradientTransform="translate(0 241) scale(1 -1)" gradientUnits="userSpaceOnUse"><stop offset=".1" stop-color="#1c8d3b"/><stop offset=".5" stop-color="#1096ad"/><stop offset=".85" stop-color="#09b9e0"/></linearGradient></defs><polygon class="cls-2" points="102.47511 43.65768 83.48756 43.65768 85.61204 28.78631 80.16805 28.78631 75.38797 63.70747 80.69918 63.70747 82.82366 48.43776 101.81121 48.43776 99.68672 63.70747 104.99793 63.70747 109.9108 28.78631 104.59959 28.78631 102.47511 43.65768"/><path class="cls-2" d="M182.67428,41.13486h-5.44399c-.26556,4.38174-.26556,8.76349,1.06224,12.87967.6639,2.12448,1.72615,4.11618,3.3195,5.70954,1.06224,1.19502,2.39005,1.9917,3.71785,2.78838l.79669-6.10788c-1.59336-1.85892-2.52281-3.85062-3.05395-6.24066-.53111-2.92116-.53111-5.9751-.39834-9.02905Z"/><polygon class="cls-2" points="174.84026 27.45851 169.2635 27.45851 168.5996 32.90249 153.99378 32.90249 153.19711 38.08091 167.80292 38.08091 164.08507 64.37137 169.66183 64.37137 173.37967 38.08091 188.11827 38.08091 188.78217 32.90249 174.04358 32.90249 174.84026 27.45851"/><path class="cls-2" d="M154.79046,50.1639c-1.19502,2.39004-2.6556,4.38174-4.78008,6.24066l-.79668,6.10788c1.59336-.79668,3.05395-1.72614,4.38175-2.78838,1.85892-1.59336,3.45228-3.58506,4.78008-5.70954,2.39004-3.9834,3.71784-8.36514,4.64729-12.87967h-5.3112c-.66389,3.05394-1.46057,6.10788-2.92116,9.02905Z"/><polygon class="cls-2" points="193.29669 48.70332 221.3133 48.70332 222.10996 43.39212 193.96059 43.39212 193.29669 48.70332"/><path class="cls-2" d="M231.67015,39.01038c-.6639,4.51452-1.59336,9.56017-4.24896,13.67635-1.06224,1.72614-2.39005,3.18672-3.85061,4.51452l-.92946,6.37345c3.71785-2.25726,6.639-4.51453,9.02905-8.23237,3.3195-5.17842,4.78009-11.15353,5.57676-16.86307l1.46059-10.62241h-5.44399l-1.59338,11.15353Z"/><path class="cls-2" d="M253.18052,49.5c-1.19501,1.72614-2.6556,3.3195-4.24896,4.38174-1.19501.79668-2.39005,1.3278-3.71785,1.72614l3.85061-27.88382h-5.44399l-4.91286,34.92117c5.9751-.79668,10.62241-1.85892,15.4025-6.37344,2.52281-2.25726,4.38175-5.04564,5.70955-7.96681,1.59336-3.18672,2.39005-6.37344,3.05395-9.69295h-5.57676c-.66392,3.85062-1.85893,7.56846-4.11619,10.88797Z"/><path class="cls-2" d="M324.74898,41.66598c-5.04565,3.05394-10.7552,4.51452-16.33196,5.70954l-.6639,4.78008c5.04565-.79668,10.0913-2.12448,14.87137-4.24896l-2.25726,15.80083h5.3112l2.6556-18.85477c4.78009-3.18672,8.09959-6.50622,10.7552-11.55187h-5.84232c-2.25728,3.71784-4.78009,5.97511-8.49794,8.36515Z"/><path class="cls-2" d="M369.49587,43.25934c-2.25728,3.85062-5.3112,7.03735-9.16182,9.16183-5.44399,3.05394-11.4191,3.71784-17.12862,4.24896l-.79669,5.57676c2.12449-.13278,4.38173-.26556,6.639-.53112,6.24068-.79668,13.27801-3.05394,18.58921-7.43569,3.05393-2.39004,5.3112-5.57676,7.30291-8.89626,1.9917-3.45228,3.05393-7.30291,3.9834-11.02075h-5.9751c-.92948,3.05394-1.85891,6.10788-3.45229,8.89627Z"/><path class="cls-2" d="M363.91913,31.04357c-5.70953-1.19502-11.4191-1.85892-17.26141-2.39004l-.79669,5.70954c5.84232.39834,11.55188,1.3278,17.26141,2.52282l.79669-5.84232Z"/><path class="cls-2" d="M448.36723,45.11826c3.85061-5.17842,6.37343-10.35685,7.96681-16.33195h-28.1494l-.79669,5.3112h21.24486c-1.06222,2.39004-2.25728,4.78008-3.85061,6.90456-2.12449,3.05394-4.6473,5.84232-7.56848,8.09959-2.6556,2.25726-5.57678,4.11618-8.63071,5.57676-1.9917,1.06224-4.24898,1.72614-6.37343,2.39004l-.79669,5.57676c3.9834-.92946,7.70123-2.52282,11.4191-4.51452,4.11619-2.25726,7.56848-4.78008,11.02073-8.09959,2.78839,6.10788,6.639,10.09128,12.7469,12.87967l.79669-5.9751c-4.38177-3.05394-7.30291-6.37345-9.02907-11.81743Z"/><path class="cls-2" d="M133.14731,28.65353h-13.01245l-4.91286,35.05394h5.44398l2.12448-15.26971h8.09958l6.10788,15.26971h5.57676l.13278-.6639-6.50623-15.66805c1.85892-.79668,3.45228-1.85892,4.78008-3.3195,1.3278-1.59336,2.12448-3.3195,2.39005-5.44398.39834-3.18672-.26556-5.70954-1.9917-7.43569-1.72612-1.59336-4.51452-2.52282-8.23235-2.52282ZM137.92739,38.8776c-.26556,1.46058-.79668,2.6556-1.9917,3.45228-1.06224.92946-2.52282,1.3278-4.24896,1.3278h-8.09958l1.3278-9.56017h8.23236c1.72615,0,3.05395.39834,3.85062,1.19502s1.06223,1.9917.92946,3.58506Z"/><path class="cls-2" d="M268.31744,44.32158h17.52697c-1.06224,3.45228-2.52281,6.24067-5.3112,8.76349-3.05395,2.6556-6.50622,3.71784-10.22406,4.38174l-.79669,5.3112c1.19501-.26556,2.52281-.39834,3.71785-.6639,4.11619-.79668,8.23236-2.78838,11.55186-5.70954,4.11619-3.58506,5.84232-7.30291,7.30291-12.21577h12.48132l.6639-5.17842h-36.24897l-.66388,5.31121Z"/><polygon class="cls-2" points="299.91911 28.25519 273.2303 28.25519 272.43363 33.56639 297.79462 33.56639 299.91911 28.25519"/><polygon class="cls-2" points="303.10582 33.56639 305.89421 26.13071 301.64525 26.13071 298.85686 33.56639 303.10582 33.56639"/><polygon class="cls-2" points="308.41702 33.56639 311.20541 26.13071 306.95645 26.13071 304.16806 33.56639 308.41702 33.56639"/><path class="cls-2" d="M396.31746,33.96473h13.80912l1.9917-5.17842h-19.3859c-2.25728,5.44398-5.17842,9.29461-10.35683,12.48133l-.79669,5.70955c3.18671-1.19502,5.84232-2.78838,8.36513-5.17842,2.6556-2.25726,4.6473-4.91286,6.37347-7.83403Z"/><path class="cls-2" d="M411.18881,38.74481c-1.59338,4.38174-4.38173,8.63071-7.96681,11.81743-2.39003,2.12448-5.17842,3.85062-8.23238,4.91286-2.92118,1.19502-5.9751,1.59336-8.89628,2.12448l-.6639,5.17843c2.12449-.13278,4.11619-.53112,6.24068-.92946,5.57678-1.06224,11.4191-3.9834,15.93361-8.23237,5.17842-4.78008,9.02903-12.21577,10.7552-18.98755l-5.84232.13278c-.39832,1.3278-.79665,2.6556-1.3278,3.9834Z"/><polygon class="cls-2" points="415.17221 33.83195 418.09339 26.39627 413.84441 26.52905 410.92327 33.96473 415.17221 33.83195"/><polygon class="cls-2" points="419.15561 26.39627 416.23447 33.83195 420.48341 33.83195 423.40459 26.39627 419.15561 26.39627"/><path class="cls-3" d="M34.89005,68.48756c-13.27801,0-24.0332-10.75519-24.0332-24.0332s10.75519-24.0332,24.0332-24.0332,24.03319,10.75519,24.03319,24.0332-10.75519,24.0332-24.03319,24.0332ZM34.62448,22.1473c-12.08299,0-22.0415,9.82573-22.0415,22.0415s9.82573,22.0415,22.0415,22.0415,22.0415-9.82573,22.0415-22.0415-9.82573-22.0415-22.0415-22.0415Z"/><path class="cls-1" d="M63.03942,17.5C37.01453,31.04357,27.32158,36.22199.5,49.36722c6.639.6639,28.41494,1.72614,28.28216,1.72614l2.52282,30.40664c-.13278,0,14.07469-30.27386,31.73444-64Z"/></svg>