<svg id="堀通信ロゴ" xmlns="http://www.w3.org/2000/svg" xmlns:xlink="http://www.w3.org/1999/xlink" width="289.714" height="48" viewBox="0 0 289.714 48">
  <defs>
    <clipPath id="clip-path">
      <rect id="長方形_345" data-name="長方形 345" width="289.714" height="48" fill="none"/>
    </clipPath>
  </defs>
  <g id="堀通信ロゴ-2" data-name="堀通信ロゴ">
    <g id="グループ_977" data-name="グループ 977" clip-path="url(#clip-path)">
      <path id="パス_604" data-name="パス 604" d="M581.434,119.163l.3-2.1h-4.146L578,114.1h-2.1l-.417,2.967h-1.328c.28-.649.533-1.278.77-1.92l.034-.09-2.159-.317-.022.057a18.786,18.786,0,0,1-2.317,4.587l.242-1.729h-2.4l.5-3.556h-2.023l-.5,3.556h-2.83l-.295,2.1h2.526a22.569,22.569,0,0,1-3.774,6.177l-.026.03.6,2.669.1-.122a22.349,22.349,0,0,0,2.8-4.486l-1.22,8.68h2.023l1.155-8.218a10.459,10.459,0,0,0,1.045,1.958l.058.08,1.592-1.894-.042-.05a13.657,13.657,0,0,1-2.205-3.28l.217-1.543h2.169c-.138.168-.277.318-.422.475l-.191.209,1.883,1.189.058.037.044-.053a14.359,14.359,0,0,0,1.631-2.447h2.006l-.365,2.595h-4.853l-.3,2.12h4.241a19.2,19.2,0,0,1-5.813,5.239l-.064.039,1.1,1.947.07-.049a21.3,21.3,0,0,0,4.965-4.672l-.888,6.317h2.1l.889-6.322a12.83,12.83,0,0,0,3.03,4.805l.069.072,1.411-2.3-.047-.043a12.122,12.122,0,0,1-3.437-5.032h3.863l.3-2.12h-4.539l.364-2.595Z" transform="translate(-474.621 -96.377)"/>
      <path id="パス_605" data-name="パス 605" d="M703.924,164.65h3.832l-.78,5.55c-.464.058-.925.12-1.386.182-.916.123-1.862.25-2.794.341l-.072.007.057,2.162.085-.01c3.9-.474,7.276-1.02,10.322-1.671l.053-.011.282-2.008-.106.02c-1.256.241-2.6.467-4.221.711l.741-5.272h3.615l.3-2.1h-9.628Z" transform="translate(-593.589 -137.305)"/>
      <path id="パス_606" data-name="パス 606" d="M730.271,114.67l-.064-.052a16.261,16.261,0,0,0-2.916-1.876l-.052-.026-1.5,1.649.088.047a14.91,14.91,0,0,1,2.5,1.622h-3.254c.123-1.012.268-2.04.408-3.035l.013-.088h-2.241l-.008.068c-.063.515-.121,1.03-.178,1.545s-.113,1.006-.174,1.51H712.577l-.3,2.121h10.379c-.29,2.948-.523,7.185.7,10.324.351.9,1.368,3,3.215,3s2.837-3.1,3.258-4.426l.027-.086-1.806-1.108-.026.1a10.913,10.913,0,0,1-.609,1.835c-.3.684-.517,1.054-.811,1.054-.494,0-.872-.88-1.04-1.268-1.082-2.632-.948-6.407-.7-9.421h5.891l.3-2.121h-2.035Z" transform="translate(-601.66 -95.211)"/>
      <path id="パス_607" data-name="パス 607" d="M841.339,176.881h5.017a34.494,34.494,0,0,1-2.47,4.424c-.912.019-1.857.019-2.771.019h-.078l.008,2.2h.078c2.46-.045,4.6-.109,6.534-.2,2.9-.136,5.274-.3,7.475-.526a12.5,12.5,0,0,1,.592,1.264l.034.081,2.189-1.257-.029-.064a22.511,22.511,0,0,0-3.757-5.678l-.041-.047-1.951,1.1.062.072a19.307,19.307,0,0,1,1.85,2.688c-2.6.131-5.212.227-7.779.285.879-1.341,1.695-2.743,2.484-4.1l.151-.261H859.2l.289-2.06h-17.86Z" transform="translate(-710.422 -147.671)"/>
      <path id="パス_608" data-name="パス 608" d="M858.146,116.8a10.2,10.2,0,0,1-3.265-3.548l-.022-.043h-2.345l-.023.028a17.452,17.452,0,0,1-4.239,3.578,25.248,25.248,0,0,1-5.084,2.448l-.083.028.962,2.031.068-.028a27.367,27.367,0,0,0,3.352-1.616l-.139.992h10.59l.15-1.062a28.107,28.107,0,0,0,2.823,1.682l.057.03,1.637-2.1-.095-.039a21.735,21.735,0,0,1-4.344-2.388m-9.009,1.851a25.681,25.681,0,0,0,4.305-3.536,18.874,18.874,0,0,0,3.347,3.536Z" transform="translate(-712.151 -95.628)"/>
      <path id="パス_609" data-name="パス 609" d="M983.422,126.444l.068.062,1.292-2-.053-.044a11.754,11.754,0,0,1-2.361-2.353,20.308,20.308,0,0,0,2.418-3.284l.293-2.043h-2.3l.431-3.065h-2.18l-.431,3.065h-2.967l-.292,2.08h5.026a15.519,15.519,0,0,1-6.055,5.592l-.055.03.627,2.158.085-.049a17.3,17.3,0,0,0,2.492-1.71l-1.05,7.477h2.18l1.1-7.833a12.247,12.247,0,0,0,1.731,1.919" transform="translate(-824.64 -96.055)"/>
      <path id="パス_610" data-name="パス 610" d="M1027.814,121.532l.317-2.257h-4.2l.781-5.56h-2.22l-.781,5.56H1017.6l-.317,2.257h4.107l-1.113,7.92h-4.952l-.317,2.257h11.828l.317-2.257H1022.5l1.113-7.92Z" transform="translate(-857.374 -96.054)"/>
      <path id="パス_611" data-name="パス 611" d="M1397.466,164.177a3.7,3.7,0,0,1-1.989-3.509l1.34-9.533h-7.249l-.554,3.939h3.244l-1.117,7.945-4.032,2.549,1.2,4.436,5.475-4.568c1.543,2.681,4.354,3.641,7.565,3.641h17.876l.553-3.94h-17.644a9.59,9.59,0,0,1-4.665-.96" transform="translate(-1171.686 -127.663)"/>
      <path id="パス_612" data-name="パス 612" d="M1420.866,77.719a22.233,22.233,0,0,0-4.435-5.661l-3.4,2.781a25.1,25.1,0,0,1,4.189,5.76Z" transform="translate(-1193.58 -60.867)"/>
      <path id="パス_613" data-name="パス 613" d="M1477.688,71.837h-19.822l-.5,3.574H1471.9a13.982,13.982,0,0,1-3.266,3.231c-1.489-1.171-4.047-2.9-4.047-2.9l-2.955,2.24a17.742,17.742,0,0,1,1.546.972h-6.5l-2.544,18.107h3.807l.782-5.561h4.711l-.754,5.362h3.773l.754-5.362h4.811l-.182,1.291c-.079.562-.258.893-.92.893h-2.681l.187,3.377h3.973c1.854,0,2.788-.993,3.039-2.781l2.154-15.326H1473c1.4-1.117,2.676-2.2,4.188-3.545ZM1463.825,88.72h-4.711l.293-2.086h4.711Zm.665-4.734h-4.711l.288-2.052h4.711Zm7.919,4.734H1467.6l.293-2.086h4.811Zm.665-4.734h-4.811l.288-2.052h4.811Z" transform="translate(-1228.302 -60.68)"/>
      <path id="パス_614" data-name="パス 614" d="M1752.538,74.4H1734.1l-.465,3.31h18.438Z" transform="translate(-1464.396 -62.848)"/>
      <path id="パス_615" data-name="パス 615" d="M1718.077,171.711h19.266l.465-3.31h-19.266Z" transform="translate(-1451.254 -142.248)"/>
      <path id="パス_616" data-name="パス 616" d="M1712.761,105.52l-.489,3.476h23.3l.488-3.476Z" transform="translate(-1446.351 -89.133)"/>
      <path id="パス_617" data-name="パス 617" d="M1722.45,140.59h19.266l.466-3.311h-19.266Z" transform="translate(-1454.948 -115.959)"/>
      <path id="パス_618" data-name="パス 618" d="M1664.752,69.93l-4.11-.43c-1.206,4.336-3.6,9.6-6.926,13.009l.854,5.23a16.58,16.58,0,0,0,1.807-1.788l-2.094,14.9h4.005l3.173-22.576a45.9,45.9,0,0,0,3.291-8.342" transform="translate(-1396.888 -58.706)"/>
      <path id="パス_619" data-name="パス 619" d="M1702.651,211.939h20.391l1.518-10.8h-20.391Zm5.171-7.588h12.215l-.6,4.247h-12.214Z" transform="translate(-1438.224 -169.902)"/>
      <path id="パス_620" data-name="パス 620" d="M1184.947,89.51a39.881,39.881,0,0,1-2.2,8.509s-.8,2.244-4.572,5.989c.67.66,2.881,2.814,2.881,2.814,2.9-3.336,4.4-5.429,5.6-8.74a48.784,48.784,0,0,0,2.122-8.739l.44-3.134h16.518l1.36-9.676h-20.325Zm5.142-9.5h12.546l-.42,2.99h-12.546Z" transform="translate(-995.201 -64.648)"/>
      <path id="パス_621" data-name="パス 621" d="M1250.8,153.9l1.219-8.673h-3.476l-.74,5.263h-2.085l.819-5.826h-3.377l-.819,5.826h-2.119l.74-5.263h-3.41l-1.219,8.673h5.528l-.9,6.389h-2.714l.731-5.2h-3.641l-1.225,8.717H1250.2l1.225-8.717h-3.641l-.73,5.2h-2.714l.9-6.389Z" transform="translate(-1042.452 -122.197)"/>
      <path id="パス_622" data-name="パス 622" d="M1155.942,88.263l-2.247.677.97-6.9h2.218l.558-3.972h-2.218l1.084-7.713h-3.873l-1.084,7.713h-3.112l-.558,3.972h3.112l-1.142,8.123-3.6,1.083-.2,4.237,8.994-3.48Z" transform="translate(-967.902 -59.425)"/>
      <path id="パス_623" data-name="パス 623" d="M10.869,180.474c-.672-1.7.958-4.146,4.212-6.865q-.113-.655-.189-1.32C5.1,177.595-.843,182.365.1,184.739c1.2,3.028,13.224,1.238,28.868-3.9-9.664,2.453-16.966,2.487-18.1-.37" transform="translate(0 -145.531)" fill="#f18e02"/>
      <path id="パス_624" data-name="パス 624" d="M131.5,21.8c-1.217.562-2.385,1.075-3.454,1.531a21.01,21.01,0,0,1-.086,2.754A20.453,20.453,0,0,1,97.445,41.753a2.184,2.184,0,0,1-.752-2.728l4.077-9.552a2.361,2.361,0,0,1,1.81-1.546l7.111-1.007c.75-.106,1.034.317.64,1.241l-6.224,14.584,7.271-1.03a3.5,3.5,0,0,0,3.15-2.214l10.9-25.55h0l1.667-3.906h0l1.635-3.831,4.938-4.157L122.939,3.578a5.281,5.281,0,0,1-3.886-.648,23.644,23.644,0,0,0-9.5-2.853A24.006,24.006,0,0,0,83.684,25.948,23.608,23.608,0,0,0,86.574,35.5l1.858-4.354A20.449,20.449,0,0,1,117.814,6.279a2.187,2.187,0,0,1,.706,2.694l-4.077,9.553a2.327,2.327,0,0,1-1.809,1.545l-7.111,1.007c-.75.106-1.034-.316-.64-1.241l6.224-14.583-7.271,1.03A3.537,3.537,0,0,0,100.684,8.5L88.525,36.992a59.952,59.952,0,0,0,9.318-1.679S93.222,37.3,87.627,39.1l-1.148,2.688-4.937,4.157,10.732-1.521a6.734,6.734,0,0,1,3.886.647,23.517,23.517,0,0,0,9.5,2.854,24.006,24.006,0,0,0,25.869-25.87c-.007-.084-.019-.166-.027-.25" transform="translate(-68.878 0.001)" fill="#0079c3"/>
      <path id="パス_625" data-name="パス 625" d="M369.281,47.427h0c-.842-2.127-7.037-1.869-16.063.247l-.788,1.846c3.3.01,5.5.71,6.08,2.171,1.131,2.856-4.215,7.83-12.939,12.658,14.918-6.967,24.909-13.894,23.71-16.922" transform="translate(-291.903 -38.818)" fill="#f18e02"/>
      <path id="パス_626" data-name="パス 626" d="M374.695,80.475l-1.859,4.355a20.333,20.333,0,0,1,1.187,5.364c1.216-.828,2.306-1.644,3.259-2.437a23.761,23.761,0,0,0-2.587-7.281" transform="translate(-314.933 -67.977)" fill="#0079c3"/>
    </g>
  </g>
</svg>
