<svg id="グループ_978" data-name="グループ 978" xmlns="http://www.w3.org/2000/svg" xmlns:xlink="http://www.w3.org/1999/xlink" width="301.785" height="50" viewBox="0 0 301.785 50">
  <defs>
    <clipPath id="clip-path">
      <rect id="長方形_346" data-name="長方形 346" width="301.785" height="50" fill="none"/>
    </clipPath>
  </defs>
  <g id="グループ_978-2" data-name="グループ 978" clip-path="url(#clip-path)">
    <path id="パス_627" data-name="パス 627" d="M582.249,119.374l.308-2.188h-4.319l.434-3.09h-2.189l-.434,3.09h-1.383c.292-.676.555-1.331.8-2l.035-.093-2.249-.33-.023.06a19.576,19.576,0,0,1-2.414,4.778l.252-1.8h-2.5l.521-3.7h-2.108l-.52,3.7h-2.948l-.307,2.188h2.632a23.511,23.511,0,0,1-3.932,6.435l-.027.031.624,2.781.105-.127a23.274,23.274,0,0,0,2.92-4.673l-1.271,9.041h2.107l1.2-8.56a10.9,10.9,0,0,0,1.088,2.039l.061.083,1.658-1.973-.044-.052a14.224,14.224,0,0,1-2.3-3.417l.226-1.608h2.259c-.144.175-.288.331-.439.5l-.2.218,1.961,1.239.06.039.045-.056a14.971,14.971,0,0,0,1.7-2.549h2.09l-.38,2.7h-5.055l-.31,2.209h4.418a20,20,0,0,1-6.055,5.457l-.067.041,1.149,2.028.073-.051a22.192,22.192,0,0,0,5.172-4.867l-.925,6.58h2.189l.926-6.585a13.365,13.365,0,0,0,3.156,5.005l.072.075,1.47-2.4-.049-.045a12.627,12.627,0,0,1-3.58-5.242h4.024l.31-2.209h-4.728l.38-2.7Z" transform="translate(-470.985 -95.638)" fill="#fff"/>
    <path id="パス_628" data-name="パス 628" d="M703.974,164.738h3.992l-.813,5.782c-.483.06-.963.125-1.444.189-.954.128-1.939.261-2.911.355l-.075.007.059,2.252.088-.011c4.062-.494,7.58-1.063,10.752-1.741l.055-.012.294-2.092-.111.021c-1.308.251-2.708.487-4.4.741l.772-5.492H714l.307-2.188H704.281Z" transform="translate(-589.041 -136.254)" fill="#fff"/>
    <path id="パス_629" data-name="パス 629" d="M731.021,114.751l-.067-.054a16.938,16.938,0,0,0-3.038-1.954l-.054-.027-1.563,1.718.091.049a15.53,15.53,0,0,1,2.605,1.69h-3.389c.129-1.054.279-2.125.425-3.162l.013-.092H723.71l-.009.071c-.065.536-.126,1.073-.186,1.61s-.118,1.048-.181,1.573H712.59l-.311,2.209H723.09c-.3,3.071-.544,7.484.727,10.754.366.938,1.425,3.121,3.349,3.121s2.956-3.231,3.394-4.611l.028-.09-1.881-1.155-.027.105a11.364,11.364,0,0,1-.635,1.912c-.312.712-.539,1.1-.845,1.1-.514,0-.909-.916-1.083-1.321-1.127-2.742-.988-6.674-.734-9.814h6.136l.311-2.209h-2.12Z" transform="translate(-597.051 -94.481)" fill="#fff"/>
    <path id="パス_630" data-name="パス 630" d="M841.352,176.967h5.226a35.92,35.92,0,0,1-2.573,4.608c-.95.019-1.934.019-2.886.019h-.081l.009,2.291h.082c2.563-.047,4.789-.114,6.807-.2,3.017-.142,5.494-.316,7.786-.548a13.023,13.023,0,0,1,.617,1.317l.036.084,2.28-1.31-.03-.067a23.448,23.448,0,0,0-3.913-5.914l-.043-.049-2.032,1.145.064.075a20.092,20.092,0,0,1,1.927,2.8c-2.705.136-5.429.236-8.1.3.916-1.4,1.765-2.857,2.588-4.271l.158-.271h10.688l.3-2.146h-18.6Z" transform="translate(-704.98 -146.539)" fill="#fff"/>
    <path id="パス_631" data-name="パス 631" d="M858.774,116.95a10.62,10.62,0,0,1-3.4-3.7l-.023-.045h-2.442l-.024.03a18.176,18.176,0,0,1-4.416,3.727,26.3,26.3,0,0,1-5.3,2.55l-.086.029,1,2.116.071-.029a28.5,28.5,0,0,0,3.492-1.683l-.145,1.034h11.031l.156-1.106a29.271,29.271,0,0,0,2.94,1.752l.06.032,1.705-2.184-.1-.04a22.637,22.637,0,0,1-4.525-2.487m-9.385,1.928a26.752,26.752,0,0,0,4.485-3.683,19.658,19.658,0,0,0,3.487,3.683Z" transform="translate(-706.696 -94.896)" fill="#fff"/>
    <path id="パス_632" data-name="パス 632" d="M983.72,126.974l.071.064,1.346-2.085-.055-.046a12.244,12.244,0,0,1-2.459-2.451,21.15,21.15,0,0,0,2.518-3.421l.306-2.128h-2.4l.449-3.193h-2.271l-.449,3.193h-3.091l-.3,2.167h5.236a16.167,16.167,0,0,1-6.308,5.825l-.057.031.653,2.248.089-.051a18.02,18.02,0,0,0,2.6-1.781l-1.094,7.788h2.271l1.147-8.16a12.757,12.757,0,0,0,1.8,2" transform="translate(-818.323 -95.319)" fill="#fff"/>
    <path id="パス_633" data-name="パス 633" d="M1028.348,121.858l.33-2.351h-4.38l.814-5.792H1022.8l-.814,5.792h-4.278l-.33,2.351h4.278l-1.159,8.25h-5.159l-.331,2.352h12.321l.33-2.352h-4.851l1.159-8.25Z" transform="translate(-850.805 -95.318)" fill="#fff"/>
    <path id="パス_634" data-name="パス 634" d="M1397.9,164.721a3.853,3.853,0,0,1-2.072-3.655l1.4-9.931h-7.551l-.577,4.1h3.379l-1.163,8.276-4.2,2.655,1.247,4.621,5.7-4.759c1.607,2.793,4.535,3.793,7.88,3.793h18.621l.577-4.1h-18.379a9.99,9.99,0,0,1-4.859-1" transform="translate(-1162.71 -126.685)" fill="#fff"/>
    <path id="パス_635" data-name="パス 635" d="M1421.193,77.955a23.161,23.161,0,0,0-4.62-5.9l-3.545,2.9a26.142,26.142,0,0,1,4.364,6Z" transform="translate(-1184.437 -60.401)" fill="#fff"/>
    <path id="パス_636" data-name="パス 636" d="M1478.669,71.837h-20.648l-.523,3.723h15.144a14.57,14.57,0,0,1-3.4,3.366c-1.551-1.22-4.215-3.019-4.215-3.019l-3.078,2.333a18.483,18.483,0,0,1,1.61,1.012h-6.772l-2.65,18.861h3.965l.814-5.792h4.907l-.785,5.586h3.931l.785-5.586h5.011l-.189,1.345c-.082.586-.269.931-.959.931h-2.793l.195,3.517h4.138c1.931,0,2.9-1.034,3.166-2.9l2.244-15.965h-4.781c1.458-1.164,2.788-2.295,4.362-3.692Zm-14.441,17.587h-4.907l.305-2.172h4.907Zm.693-4.931h-4.907l.3-2.138h4.907Zm8.249,4.931h-5.011l.305-2.172h5.011Zm.693-4.931h-5.011l.3-2.138h5.011Z" transform="translate(-1218.893 -60.216)" fill="#fff"/>
    <path id="パス_637" data-name="パス 637" d="M1753.326,74.4H1734.12l-.485,3.448h19.206Z" transform="translate(-1453.178 -62.366)" fill="#fff"/>
    <path id="パス_638" data-name="パス 638" d="M1718.077,171.849h20.069l.485-3.448h-20.069Z" transform="translate(-1440.136 -141.158)" fill="#fff"/>
    <path id="パス_639" data-name="パス 639" d="M1712.781,105.52l-.509,3.621h24.275l.509-3.621Z" transform="translate(-1435.271 -88.45)" fill="#fff"/>
    <path id="パス_640" data-name="パス 640" d="M1722.45,140.728h20.069l.485-3.449h-20.069Z" transform="translate(-1443.802 -115.071)" fill="#fff"/>
    <path id="パス_641" data-name="パス 641" d="M1665.211,69.948l-4.281-.448c-1.256,4.517-3.75,10-7.215,13.551l.89,5.448a17.262,17.262,0,0,0,1.882-1.863l-2.181,15.517h4.172l3.305-23.516a47.806,47.806,0,0,0,3.428-8.689" transform="translate(-1386.187 -58.257)" fill="#fff"/>
    <path id="パス_642" data-name="パス 642" d="M1702.651,212.389h21.24l1.581-11.249h-21.24Zm5.386-7.9h12.724l-.622,4.424h-12.724Z" transform="translate(-1427.206 -168.601)" fill="#fff"/>
    <path id="パス_643" data-name="パス 643" d="M1185.229,90.051a41.52,41.52,0,0,1-2.291,8.864s-.834,2.337-4.762,6.239c.7.688,3,2.931,3,2.931,3.021-3.475,4.588-5.655,5.831-9.1a50.816,50.816,0,0,0,2.21-9.1l.459-3.264h17.206l1.417-10.08h-21.172Zm5.356-9.9h13.069l-.438,3.114h-13.069Z" transform="translate(-987.578 -64.153)" fill="#fff"/>
    <path id="パス_644" data-name="パス 644" d="M1251.5,154.284l1.27-9.034h-3.62l-.771,5.483H1246.2l.853-6.069h-3.517l-.853,6.069h-2.207l.771-5.483H1237.7l-1.27,9.034h5.758l-.935,6.655h-2.828l.761-5.414h-3.793l-1.276,9.081h16.758l1.276-9.081h-3.793l-.761,5.414h-2.828l.935-6.655Z" transform="translate(-1034.466 -121.261)" fill="#fff"/>
    <path id="パス_645" data-name="パス 645" d="M1156.362,89.009l-2.341.705,1.011-7.192h2.31l.582-4.138h-2.311l1.129-8.034h-4.034l-1.129,8.034h-3.241l-.582,4.138H1151l-1.189,8.461-3.745,1.129-.206,4.414,9.369-3.625Z" transform="translate(-960.487 -58.97)" fill="#fff"/>
    <path id="パス_646" data-name="パス 646" d="M11.321,180.815c-.7-1.769,1-4.319,4.388-7.152q-.118-.682-.2-1.375c-10.2,5.528-16.39,10.5-15.411,12.97,1.249,3.154,13.775,1.29,30.071-4.057-10.066,2.555-17.673,2.59-18.85-.385" transform="translate(0 -144.416)" fill="#fff"/>
    <path id="パス_647" data-name="パス 647" d="M133.585,22.711c-1.268.585-2.484,1.12-3.6,1.594a21.887,21.887,0,0,1-.089,2.869,21.305,21.305,0,0,1-31.79,16.319,2.275,2.275,0,0,1-.783-2.842l4.247-9.95a2.459,2.459,0,0,1,1.886-1.61l7.407-1.049c.781-.111,1.078.33.667,1.292l-6.484,15.192,7.574-1.073a3.65,3.65,0,0,0,3.281-2.306L127.26,14.532h0L129,10.463h0l1.7-3.99,5.143-4.33-11.18,1.584a5.5,5.5,0,0,1-4.048-.675A24.629,24.629,0,0,0,110.722.079a25.007,25.007,0,0,0-26.949,26.95,24.592,24.592,0,0,0,3.011,9.951l1.936-4.536a21.3,21.3,0,0,1,30.606-25.9,2.278,2.278,0,0,1,.735,2.806L115.814,19.3a2.424,2.424,0,0,1-1.885,1.609l-7.407,1.049c-.782.111-1.078-.33-.667-1.293l6.483-15.191-7.574,1.073a3.684,3.684,0,0,0-3.283,2.312L88.816,38.533a62.45,62.45,0,0,0,9.706-1.749s-4.814,2.067-10.642,3.942l-1.2,2.8-5.143,4.33,11.18-1.584a7.015,7.015,0,0,1,4.048.674,24.5,24.5,0,0,0,9.9,2.973,25.006,25.006,0,0,0,26.947-26.948c-.007-.087-.02-.173-.028-.26" transform="translate(-68.351 0.001)" fill="#fff"/>
    <path id="パス_648" data-name="パス 648" d="M370.269,47.489h0c-.877-2.215-7.33-1.947-16.733.257l-.821,1.923c3.438.011,5.73.74,6.333,2.262,1.178,2.975-4.391,8.156-13.478,13.185,15.54-7.258,25.947-14.473,24.7-17.628" transform="translate(-289.667 -38.52)" fill="#fff"/>
    <path id="パス_649" data-name="パス 649" d="M374.772,80.475l-1.936,4.536a21.182,21.182,0,0,1,1.236,5.587c1.266-.863,2.4-1.712,3.395-2.539a24.755,24.755,0,0,0-2.7-7.584" transform="translate(-312.521 -67.456)" fill="#fff"/>
  </g>
</svg>
