<?xml version="1.0" encoding="UTF-8"?><svg id="_グループ_808" xmlns="http://www.w3.org/2000/svg" xmlns:xlink="http://www.w3.org/1999/xlink" viewBox="0 0 202 132"><defs><style>.cls-1{fill:none;}.cls-1,.cls-2{stroke-width:0px;}.cls-2{fill:#fff;}.cls-3{clip-path:url(#clippath);}</style><clipPath id="clippath"><rect class="cls-1" width="220.98599" height="188.235"/></clipPath></defs><path id="_パス_554" class="cls-2" d="M90.859,118.19l-20.578,35.644,19.862,34.40001h.757l-19.862-34.39999,20.2-34.99001h40.39999l20.036,34.7h.756l-20.41199-35.354h-41.159Z"/><path id="_パス_555" class="cls-2" d="M169.916,63.658l.10001.164-28.61601,49.548-.09399.164h-57.4l-28.177-48.811h.757l27.8,48.15701h56.646l28.32201-49.058-27.209-47.12801h.756l27.11501,46.964Z"/><path id="_パス_556" class="cls-2" d="M159.24899,22.808l-20.57899,35.643.04601.08h.757l-.04601-.08,20.2-34.989h40.40001l20.2,34.989-.045.08h.756l.04601-.08-20.57501-35.643h-41.16Z"/><path id="_パス_557" class="cls-2" d="M90.785,0l23.141,40.082-23.469,40.65h.757l23.469-40.65L91.541,0h-.756Z"/><path id="_パス_558" class="cls-2" d="M133.58501,40.161l-33.347,57.76H33.491L.757,41.221h-.757l33.113,57.355h67.5l.1-.164,33.631-58.251h-.75899Z"/><g id="_グループ_807"><g class="cls-3"><g id="_グループ_806"><path id="_パス_559" class="cls-2" d="M113.754,8.022c1.81371,0,3.284-1.47029,3.284-3.284s-1.47029-3.284-3.284-3.284c-1.81371,0-3.284,1.47029-3.284,3.284h0c0,1.8137,1.47029,3.284,3.284,3.284"/><path id="_パス_560" class="cls-2" d="M142.8,19.978c1.81371,0,3.284-1.47029,3.284-3.284.00002-1.8137-1.47029-3.284-3.284-3.284-1.81369,0-3.284,1.47029-3.284,3.284h0c0,1.81371,1.47029,3.284,3.284,3.284"/><path id="_パス_561" class="cls-2" d="M134.825,103.686c1.81371,0,3.284-1.47029,3.284-3.284.00002-1.81371-1.47029-3.284-3.284-3.284s-3.284,1.47029-3.284,3.284h0c0,1.81371,1.47029,3.284,3.284,3.284"/><path id="_パス_563" class="cls-2" d="M90.458,85.795c2.79622,0,5.063-2.26678,5.063-5.063s-2.26678-5.063-5.063-5.063-5.063,2.26678-5.063,5.063,2.26678,5.063,5.063,5.063h0"/><path id="_パス_564" class="cls-2" d="M138.66901,63.514c2.79622,0,5.063-2.26678,5.063-5.063-.00002-2.79622-2.2668-5.063-5.063-5.063-2.79622,0-5.063,2.26678-5.063,5.063s2.26678,5.063,5.063,5.063h0"/><path id="_パス_565" class="cls-2" d="M134.342,41.889c.95435,0,1.728-.77365,1.728-1.728.00002-.95435-.77364-1.728-1.728-1.728-.95435,0-1.728.77365-1.728,1.728h0c-.00055.9538.7722,1.72745,1.726,1.728h.002"/></g></g></g></svg>