<?xml version="1.0" encoding="UTF-8"?><svg id="_グループ_805" xmlns="http://www.w3.org/2000/svg" xmlns:xlink="http://www.w3.org/1999/xlink" viewBox="0 0 243.998 145"><defs><style>.cls-1{fill:none;}.cls-1,.cls-2{stroke-width:0px;}.cls-2{fill:#fff;}.cls-3{clip-path:url(#clippath);}</style><clipPath id="clippath"><rect class="cls-1" width="254.26199" height="259.11499"/></clipPath></defs><path id="_パス_541" class="cls-2" d="M33.066,95.508l.046-.08h.757l-.046.08,20.2,34.98901h40.4l20.2-34.989-.047-.08h.757l.047.08-20.58,35.64299h-41.156l-20.578-35.643Z"/><path id="_パス_542" class="cls-2" d="M96.029,17.843h.756l-23.46799,40.649,22.838,39.559h-.121v.524h-.334l-23.139-40.083,23.468-40.649Z"/><path id="_パス_543" class="cls-2" d="M86.626,0l-.094.163-33.656,58.3.094.163,33.656,58.294h61.652v-.654h-61.278l-33.373-57.8L87,.654h66.74701l32.73401,56.7h.757L154.13,0h-67.50401Z"/><path id="_パス_544" class="cls-2" d="M220.5,69.479v1.288l33.007,57.173-33.007,57.17v1.28999h.013l.09399-.164,33.657-58.294-.10001-.163-33.65599-58.3h-.008Z"/><path id="_パス_547" class="cls-2" d="M129.85699,127.652h.757l25.509,44.18299h51.256l25.62801-44.388-25.62801-44.38899h-51.256l-.01199.02v-.67799h51.646l25.912,44.87901.09399.164-25.911,44.879-.10001.164h-52.008l-25.88701-44.83401Z"/><path id="_パス_548" class="cls-2" d="M20.579,113.412L0,149.05499l.045.08h.755l-.046-.08,20.2-34.989h40.4l20.2,34.989-.046.08h.757l.046-.08-20.57201-35.64299H20.579Z"/><g id="_グループ_804"><g class="cls-3"><g id="_グループ_803"><path id="_パス_549" class="cls-2" d="M114.625,100.571c2.79622,0,5.063-2.26678,5.063-5.063s-2.26678-5.063-5.063-5.063-5.063,2.26678-5.063,5.063,2.26678,5.063,5.063,5.063h0"/><path id="_パス_551" class="cls-2" d="M147.54601,120.571c2.14397-.00055,3.88156-1.73903,3.881-3.883-.00055-2.14397-1.73901-3.88155-3.883-3.881-2.14319.00055-3.88045,1.73781-3.881,3.881,0,2.14452,1.73848,3.883,3.883,3.883"/><path id="_パス_552" class="cls-2" d="M96.029,19.571c.95435-.00055,1.72755-.77465,1.72701-1.729s-.77465-1.72755-1.729-1.727c-.95396.00055-1.72701.77404-1.72701,1.728,0,.95435.77365,1.728,1.728,1.728"/></g></g></g></svg>