<?xml version="1.0" encoding="UTF-8"?><svg id="_グループ_811" xmlns="http://www.w3.org/2000/svg" xmlns:xlink="http://www.w3.org/1999/xlink" viewBox="0 0 138 150"><defs><style>.cls-1{fill:none;}.cls-1,.cls-2{stroke-width:0px;}.cls-2{fill:#fff;}.cls-3{clip-path:url(#clippath);}</style><clipPath id="clippath"><rect class="cls-1" x="-1" width="130" height="211.5"/></clipPath></defs><path id="_パス_566" class="cls-2" d="M51.5,95.8l-33,57.2.10001.2,33.7,58.3h64.09999v-.7h-63.8l-33.29999-57.8,33-57.2h-.8Z"/><path id="_パス_567" class="cls-2" d="M109.39999,115.9h-43.2v.7h43.59999l19.20001-33.3h-.60001v-.3l-19,32.9Z"/><path id="_パス_568" class="cls-2" d="M61.10001,136.3h37.3l17.39999,30.2h-.8l-17-29.5h-36.5l-18.3,31.7.2.3h-.8l-.2-.3,18.70001-32.39999Z"/><g id="_グループ_810"><g class="cls-3"><g id="_グループ_809"><path id="_パス_569" class="cls-2" d="M67.3,119.5c1.8,0,3.3-1.5,3.3-3.3s-1.5-3.3-3.3-3.3-3.3,1.5-3.3,3.3h0c.10001,1.9,1.5,3.3,3.3,3.3"/><path id="_パス_570" class="cls-2" d="M51.5,100.8c2.8,0,5.10001-2.3,5.10001-5.1s-2.3-5.1-5.10001-5.1-5.10001,2.3-5.10001,5.1,2.3,5.1,5.10001,5.1h0"/><path id="_パス_571" class="cls-2" d="M41.7,93.5v.7h-.39999l-23.2-40.2L42.3,12.1h43.59999v.7h-43.2l-23.8,41.2,22.8,39.5Z"/><path id="_パス_572" class="cls-2" d="M-.89999,54.2l-.10001-.2L29.2,1.7h.8L-.2,54l28.3,49h-.8L-.89999,54.2Z"/><path id="_パス_573" class="cls-2" d="M36.2,147.8h.8l30-52.2.10001-.2-28.3-49h-.8l28.3,49-30.10001,52.4Z"/><path id="_パス_574" class="cls-2" d="M27.7,107.9c2.8,0,5.10001-2.3,5.10001-5.1s-2.3-5.1-5.10001-5.1-5.10001,2.3-5.10001,5.1,2.3,5.1,5.10001,5.1h0"/><path id="_パス_575" class="cls-2" d="M81.39999,129.3c2.8,0,5.10001-2.3,5.10001-5.1s-2.3-5.1-5.10001-5.1-5.10001,2.3-5.10001,5.1,2.30002,5.1,5.10001,5.1h0"/><path id="_パス_576" class="cls-2" d="M36.2,152.8c2.8,0,5.10001-2.3,5.10001-5.10001s-2.3-5.10001-5.10001-5.10001-5.10001,2.3-5.10001,5.10001,2.3,5.10001,5.10001,5.10001h0"/><path id="_パス_577" class="cls-2" d="M37.89999,36.3c1,0,1.7-.8,1.7-1.7s-.8-1.7-1.7-1.7c-1,0-1.7.8-1.7,1.7s.8,1.7,1.7,1.7"/><path id="_パス_578" class="cls-2" d="M38.3,48.2c1,0,1.7-.8,1.7-1.7s-.8-1.7-1.7-1.7-1.7.8-1.7,1.7h0c0,1,.79999,1.7,1.7,1.7"/><path id="_パス_579" class="cls-2" d="M29.2,3.5c1,0,1.7-.8,1.7-1.7s-.7-1.8-1.7-1.8-1.7.8-1.7,1.7h0c0,1,.7,1.8,1.7,1.8"/></g></g></g></svg>