<?xml version="1.0" encoding="UTF-8"?><svg id="_グループ_814" xmlns="http://www.w3.org/2000/svg" xmlns:xlink="http://www.w3.org/1999/xlink" viewBox="0 0 216.004 127.65401"><defs><style>.cls-1{fill:none;}.cls-1,.cls-2{stroke-width:0px;}.cls-2{fill:#fff;}.cls-3{clip-path:url(#clippath);}</style><clipPath id="clippath"><rect class="cls-1" width="226.049" height="116.817"/></clipPath></defs><path id="_パス_580" class="cls-2" d="M147.108,19.977l27.209,47.128-28.32201,49.058h-56.645l-27.8-48.157h-.757l28.179,48.811h57.40001l.09399-.164,28.606-49.548-.10001-.164-27.108-46.96399h-.756Z"/><path id="_パス_581" class="cls-2" d="M164.312,26.091l-20.58,35.644.047.08h.756l-.04601-.08,20.2-34.99h40.40001l20.2,34.99-.04601.08h.75702l.045-.08-20.57401-35.644h-41.159Z"/><path id="_パス_582" class="cls-2" d="M119.745,43.366l-23.469,40.649h-.756l23.468-40.649L95.847,3.283h.753l23.145,40.083Z"/><path id="_パス_583" class="cls-2" d="M5.063,44.5h.757l32.735,56.7h66.745l33.347-57.759h.757l-33.631,58.25-.1.164H38.17301L5.063,44.5Z"/><g id="_グループ_813"><g class="cls-3"><g id="_グループ_812"><path id="_パス_584" class="cls-2" d="M95.848,6.568c1.81371,0,3.284-1.47029,3.284-3.284S97.66171,0,95.84801,0s-3.284,1.47029-3.284,3.284h0c0,1.8137,1.47029,3.284,3.284,3.284"/><path id="_パス_585" class="cls-2" d="M118.817,11.305c1.81371,0,3.284-1.47029,3.284-3.284s-1.47029-3.284-3.284-3.284-3.284,1.47029-3.284,3.284h0c0,1.8137,1.47029,3.284,3.284,3.284"/><path id="_パス_586" class="cls-2" d="M147.864,23.261c1.81371,0,3.284-1.47029,3.284-3.284.00002-1.8137-1.47029-3.284-3.284-3.284-1.81369,0-3.284,1.47029-3.284,3.284h0c0,1.81371,1.47029,3.284,3.284,3.284"/><path id="_パス_587" class="cls-2" d="M95.52,89.078c2.79622,0,5.063-2.26678,5.063-5.063s-2.26678-5.063-5.063-5.063-5.063,2.26678-5.063,5.063,2.26678,5.063,5.063,5.063h0"/><path id="_パス_588" class="cls-2" d="M5.063,49.567c2.79622,0,5.063-2.26678,5.063-5.063s-2.26678-5.063-5.063-5.063C2.26834,39.441.00221,41.70535,0,44.5c0,2.79622,2.26678,5.063,5.063,5.063"/><path id="_パス_589" class="cls-2" d="M143.73199,66.8c2.79622,0,5.063-2.26678,5.063-5.063-.00002-2.79622-2.2668-5.063-5.063-5.063-2.79622,0-5.063,2.26678-5.063,5.063s2.26678,5.063,5.063,5.063h0"/><path id="_パス_590" class="cls-2" d="M139.39999,45.172c.95435,0,1.728-.77365,1.728-1.728.00002-.95435-.77364-1.728-1.728-1.728-.95435,0-1.728.77365-1.728,1.728h0c-.00055.9538.7722,1.72745,1.726,1.728h.002"/></g></g></g></svg>