<svg id="堀通信ロゴ" xmlns="http://www.w3.org/2000/svg" xmlns:xlink="http://www.w3.org/1999/xlink" width="386.285" height="64" viewBox="0 0 386.285 64">
  <defs>
    <clipPath id="clip-path">
      <rect id="長方形_345" data-name="長方形 345" width="386.285" height="64" fill="none"/>
    </clipPath>
  </defs>
  <g id="グループ_977" data-name="グループ 977" clip-path="url(#clip-path)">
    <path id="パス_604" data-name="パス 604" d="M587.952,120.852l.394-2.8h-5.528l.556-3.955h-2.8l-.556,3.955h-1.77c.374-.866.71-1.7,1.027-2.56l.045-.119-2.879-.423-.03.077a25.054,25.054,0,0,1-3.089,6.116l.323-2.3h-3.2l.666-4.741h-2.7l-.666,4.741h-3.773l-.393,2.8h3.369a30.093,30.093,0,0,1-5.032,8.236l-.035.04.8,3.559.135-.163a29.783,29.783,0,0,0,3.738-5.982L564.928,138.9h2.7l1.54-10.957a13.956,13.956,0,0,0,1.393,2.611l.078.106,2.122-2.525-.056-.066a18.2,18.2,0,0,1-2.94-4.374l.289-2.058h2.892c-.185.224-.369.424-.562.634l-.255.279,2.511,1.586.077.049.058-.071a19.16,19.16,0,0,0,2.175-3.262h2.675l-.486,3.46h-6.471l-.4,2.827h5.655a25.6,25.6,0,0,1-7.75,6.985l-.086.052,1.47,2.6.093-.066a28.405,28.405,0,0,0,6.62-6.229l-1.183,8.423h2.8l1.185-8.429a17.106,17.106,0,0,0,4.04,6.407l.093.1,1.882-3.068-.062-.058a16.163,16.163,0,0,1-4.582-6.71h5.151l.4-2.827h-6.052l.486-3.46Z" transform="translate(-445.533 -90.47)"/>
    <path id="パス_605" data-name="パス 605" d="M704.324,165.35h5.109l-1.041,7.4c-.618.077-1.233.16-1.848.243-1.221.164-2.482.334-3.726.454l-.1.009.076,2.883.113-.014c5.2-.632,9.7-1.361,13.762-2.229l.071-.015.376-2.677-.142.027c-1.675.321-3.466.623-5.628.948l.988-7.03h4.82l.393-2.8H704.718Z" transform="translate(-557.21 -128.891)"/>
    <path id="パス_606" data-name="パス 606" d="M736.268,115.321l-.085-.07a21.676,21.676,0,0,0-3.889-2.5l-.069-.035-2,2.2.117.062a19.879,19.879,0,0,1,3.335,2.163h-4.339c.165-1.35.358-2.721.544-4.047l.017-.118h-2.988l-.011.091c-.084.687-.161,1.374-.238,2.061-.076.671-.151,1.342-.232,2.013H712.677l-.4,2.827h13.838c-.387,3.93-.7,9.58.93,13.765.468,1.2,1.824,3.995,4.286,3.995s3.783-4.136,4.345-5.9l.036-.115-2.408-1.478-.035.135a14.532,14.532,0,0,1-.812,2.447c-.4.912-.69,1.405-1.081,1.405-.658,0-1.163-1.173-1.386-1.691-1.442-3.509-1.265-8.542-.94-12.562h7.854l.4-2.827h-2.714Z" transform="translate(-564.787 -89.376)"/>
    <path id="パス_607" data-name="パス 607" d="M841.44,177.568h6.69a45.986,45.986,0,0,1-3.293,5.9c-1.216.025-2.476.025-3.694.025h-.1l.011,2.933.1,0c3.28-.06,6.13-.146,8.713-.262,3.862-.181,7.032-.4,9.966-.7a16.679,16.679,0,0,1,.79,1.685l.046.108,2.918-1.676-.038-.086a30.015,30.015,0,0,0-5.009-7.571l-.055-.063-2.6,1.465.082.1A25.722,25.722,0,0,1,858.431,183c-3.462.175-6.95.3-10.372.38,1.173-1.788,2.26-3.657,3.312-5.467l.2-.347h13.681l.385-2.747H841.826Z" transform="translate(-666.884 -138.621)"/>
    <path id="パス_608" data-name="パス 608" d="M863.166,118a13.6,13.6,0,0,1-4.354-4.73l-.029-.057h-3.126l-.031.038a23.266,23.266,0,0,1-5.652,4.771,33.662,33.662,0,0,1-6.779,3.264l-.11.037,1.283,2.708.091-.037a36.486,36.486,0,0,0,4.469-2.154l-.186,1.323h14.12l.2-1.416a37.455,37.455,0,0,0,3.763,2.242l.077.04,2.183-2.8-.127-.052A28.98,28.98,0,0,1,863.166,118m-12.012,2.468a34.241,34.241,0,0,0,5.74-4.715,25.164,25.164,0,0,0,4.463,4.715Z" transform="translate(-668.507 -89.768)"/>
    <path id="パス_609" data-name="パス 609" d="M985.81,130.687l.09.082,1.723-2.668-.071-.058a15.671,15.671,0,0,1-3.148-3.137,27.077,27.077,0,0,0,3.224-4.379l.391-2.724h-3.066l.574-4.087h-2.907l-.574,4.087h-3.956l-.39,2.774h6.7a20.694,20.694,0,0,1-8.074,7.456l-.073.04.836,2.877.114-.065a23.071,23.071,0,0,0,3.323-2.279l-1.4,9.969h2.907l1.468-10.444a16.328,16.328,0,0,0,2.307,2.558" transform="translate(-774.102 -90.168)"/>
    <path id="パス_610" data-name="パス 610" d="M1032.083,124.138l.423-3.01H1026.9l1.042-7.414h-2.959l-1.042,7.414h-5.476l-.423,3.01h5.476l-1.484,10.559h-6.6l-.423,3.01h15.771l.423-3.01h-6.209l1.484-10.559Z" transform="translate(-804.829 -90.167)"/>
    <path id="パス_611" data-name="パス 611" d="M1400.918,168.525a4.932,4.932,0,0,1-2.652-4.679l1.786-12.711h-9.666l-.738,5.252h4.325l-1.489,10.593-5.376,3.4,1.6,5.915,7.3-6.091c2.057,3.575,5.805,4.855,10.087,4.855h23.834l.738-5.253h-23.525a12.788,12.788,0,0,1-6.22-1.28" transform="translate(-1099.879 -119.839)"/>
    <path id="パス_612" data-name="パス 612" d="M1423.479,79.606a29.654,29.654,0,0,0-5.913-7.548l-4.538,3.708a33.458,33.458,0,0,1,5.586,7.68Z" transform="translate(-1120.431 -57.137)"/>
    <path id="パス_613" data-name="パス 613" d="M1485.539,71.837H1459.11l-.67,4.765h19.384a18.652,18.652,0,0,1-4.355,4.308c-1.985-1.562-5.4-3.865-5.4-3.865l-3.939,2.987a23.662,23.662,0,0,1,2.06,1.3h-8.668l-3.392,24.142h5.076l1.042-7.414h6.281l-1,7.15h5.031l1-7.15h6.415l-.242,1.721c-.105.75-.344,1.191-1.227,1.191h-3.574l.25,4.5h5.3c2.472,0,3.717-1.324,4.052-3.708l2.872-20.435h-6.119c1.866-1.49,3.568-2.937,5.583-4.726Zm-18.484,22.511h-6.281l.391-2.781h6.281Zm.887-6.312h-6.281l.385-2.736h6.281Zm10.559,6.312h-6.414l.39-2.781h6.415Zm.887-6.312h-6.414l.385-2.736h6.415Z" transform="translate(-1153.025 -56.962)"/>
    <path id="パス_614" data-name="パス 614" d="M1758.839,74.4h-24.584l-.62,4.414h24.584Z" transform="translate(-1374.65 -58.996)"/>
    <path id="パス_615" data-name="パス 615" d="M1718.077,172.815h25.688l.62-4.414H1718.7Z" transform="translate(-1362.313 -133.53)"/>
    <path id="パス_616" data-name="パス 616" d="M1712.924,105.52l-.651,4.634h31.073l.651-4.634Z" transform="translate(-1357.711 -83.67)"/>
    <path id="パス_617" data-name="パス 617" d="M1722.45,141.693h25.688l.621-4.414h-25.688Z" transform="translate(-1365.781 -108.852)"/>
    <path id="パス_618" data-name="パス 618" d="M1668.43,70.074l-5.48-.574c-1.607,5.782-4.8,12.8-9.235,17.346l1.139,6.974a22.093,22.093,0,0,0,2.409-2.384l-2.792,19.862h5.34l4.23-30.1a61.18,61.18,0,0,0,4.388-11.122" transform="translate(-1311.279 -55.109)"/>
    <path id="パス_619" data-name="パス 619" d="M1702.651,215.538h27.188l2.024-14.4h-27.188Zm6.894-10.117h16.287l-.8,5.663h-16.286Z" transform="translate(-1350.081 -159.49)"/>
    <path id="パス_620" data-name="パス 620" d="M1187.2,93.835a53.148,53.148,0,0,1-2.932,11.346s-1.068,2.992-6.1,7.986c.893.88,3.842,3.752,3.842,3.752,3.867-4.447,5.873-7.238,7.464-11.653a65.052,65.052,0,0,0,2.829-11.652l.587-4.178h22.024l1.813-12.9h-27.1Zm6.855-12.667h16.728l-.56,3.986H1193.5Z" transform="translate(-934.21 -60.686)"/>
    <path id="パス_621" data-name="パス 621" d="M1256.362,156.978l1.625-11.563h-4.635l-.986,7.018h-2.781l1.092-7.768h-4.5l-1.092,7.768h-2.825l.986-7.018H1238.7l-1.625,11.563h7.371l-1.2,8.519h-3.619l.974-6.93h-4.855l-1.633,11.623h21.45l1.634-11.623h-4.855l-.974,6.93h-3.619l1.2-8.519Z" transform="translate(-978.565 -114.708)"/>
    <path id="パス_622" data-name="パス 622" d="M1159.3,94.233l-3,.9,1.294-9.206h2.957l.745-5.3h-2.958l1.445-10.284h-5.164l-1.445,10.284h-4.149l-.744,5.3h4.149l-1.522,10.83-4.793,1.445-.264,5.65,11.992-4.639Z" transform="translate(-908.584 -55.783)"/>
    <path id="パス_623" data-name="パス 623" d="M14.492,183.2c-.9-2.264,1.277-5.529,5.616-9.154q-.151-.873-.252-1.76C6.794,179.364-1.124,185.724.129,188.889c1.6,4.037,17.632,1.651,38.491-5.193-12.885,3.27-22.621,3.315-24.129-.493" transform="translate(0 -136.612)" fill="#f18e02"/>
    <path id="パス_624" data-name="パス 624" d="M148.157,29.07c-1.623.749-3.18,1.433-4.606,2.041a28.017,28.017,0,0,1-.114,3.672,27.27,27.27,0,0,1-40.691,20.888,2.912,2.912,0,0,1-1-3.637L107.179,39.3a3.147,3.147,0,0,1,2.414-2.061l9.481-1.343c1-.142,1.379.422.854,1.654l-8.3,19.445,9.694-1.373c2.28-.336,3.483-1.222,4.2-2.952L140.061,18.6h0l2.223-5.209h0l2.18-5.108,6.584-5.542L136.738,4.77a7.042,7.042,0,0,1-5.181-.865A31.525,31.525,0,0,0,118.892.1,32.008,32.008,0,0,0,84.4,34.6a31.478,31.478,0,0,0,3.854,12.738l2.478-5.806A27.265,27.265,0,0,1,129.9,8.373a2.916,2.916,0,0,1,.941,3.592L125.41,24.7A3.1,3.1,0,0,1,123,26.761L113.516,28.1c-1,.142-1.379-.422-.854-1.654l8.3-19.445-9.695,1.373c-2.281.336-3.468,1.239-4.2,2.959L90.853,49.322a79.937,79.937,0,0,0,12.424-2.239s-6.162,2.646-13.622,5.046l-1.53,3.585-6.583,5.542,14.31-2.027a8.979,8.979,0,0,1,5.182.863A31.356,31.356,0,0,0,113.7,63.9,32.008,32.008,0,0,0,148.192,29.4c-.009-.112-.025-.221-.036-.333" transform="translate(-64.657 0.001)" fill="#0079c3"/>
    <path id="パス_625" data-name="パス 625" d="M377.185,47.918h0c-1.123-2.835-9.383-2.492-21.418.329l-1.051,2.462c4.4.014,7.335.947,8.106,2.9,1.508,3.808-5.62,10.44-17.252,16.877,19.891-9.29,33.212-18.526,31.614-22.563" transform="translate(-274.013 -36.439)" fill="#f18e02"/>
    <path id="パス_626" data-name="パス 626" d="M375.314,80.475l-2.478,5.806a27.113,27.113,0,0,1,1.582,7.151c1.621-1.1,3.074-2.191,4.346-3.25a31.686,31.686,0,0,0-3.45-9.708" transform="translate(-295.633 -63.811)" fill="#0079c3"/>
  </g>
</svg>
