<?xml version="1.0" encoding="utf-8"?>
<!-- Generator: Adobe Illustrator 27.9.6, SVG Export Plug-In . SVG Version: 9.03 Build 54986)  -->
<svg version="1.1" id="_レイヤー_2" xmlns="http://www.w3.org/2000/svg" xmlns:xlink="http://www.w3.org/1999/xlink" x="0px"
	 y="0px" viewBox="0 0 361 55" style="enable-background:new 0 0 361 55;" xml:space="preserve">
<style type="text/css">
	.st0{fill:#FFFFFF;}
</style>
<g>
	<polygon class="st0" points="85.3,20.7 71,20.7 72.6,9.5 68.5,9.5 64.9,35.8 68.9,35.8 70.5,24.3 84.8,24.3 83.2,35.8 87.2,35.8 
		90.9,9.5 86.9,9.5 	"/>
	<path class="st0" d="M145.7,18.8h-4.1c-0.2,3.3-0.2,6.6,0.8,9.7c0.5,1.6,1.3,3.1,2.5,4.3c0.8,0.9,1.8,1.5,2.8,2.1l0.6-4.6
		c-1.2-1.4-1.9-2.9-2.3-4.7C145.6,23.4,145.6,21.1,145.7,18.8z"/>
	<polygon class="st0" points="139.8,8.5 135.6,8.5 135.1,12.6 124.1,12.6 123.5,16.5 134.5,16.5 131.7,36.3 135.9,36.3 138.7,16.5 
		149.8,16.5 150.3,12.6 139.2,12.6 	"/>
	<path class="st0" d="M124.7,25.6c-0.9,1.8-2,3.3-3.6,4.7l-0.6,4.6c1.2-0.6,2.3-1.3,3.3-2.1c1.4-1.2,2.6-2.7,3.6-4.3
		c1.8-3,2.8-6.3,3.5-9.7h-4C126.4,21.1,125.8,23.4,124.7,25.6z"/>
	<polygon class="st0" points="153.7,24.5 174.8,24.5 175.4,20.5 154.2,20.5 	"/>
	<path class="st0" d="M182.6,17.2c-0.5,3.4-1.2,7.2-3.2,10.3c-0.8,1.3-1.8,2.4-2.9,3.4l-0.7,4.8c2.8-1.7,5-3.4,6.8-6.2
		c2.5-3.9,3.6-8.4,4.2-12.7l1.1-8h-4.1L182.6,17.2z"/>
	<path class="st0" d="M198.8,25.1c-0.9,1.3-2,2.5-3.2,3.3c-0.9,0.6-1.8,1-2.8,1.3l2.9-21h-4.1l-3.7,26.3c4.5-0.6,8-1.4,11.6-4.8
		c1.9-1.7,3.3-3.8,4.3-6c1.2-2.4,1.8-4.8,2.3-7.3h-4.2C201.4,19.8,200.5,22.6,198.8,25.1z"/>
	<path class="st0" d="M252.7,19.2c-3.8,2.3-8.1,3.4-12.3,4.3l-0.5,3.6c3.8-0.6,7.6-1.6,11.2-3.2l-1.7,11.9h4l2-14.2
		c3.6-2.4,6.1-4.9,8.1-8.7h-4.4C257.4,15.7,255.5,17.4,252.7,19.2z"/>
	<path class="st0" d="M286.4,20.4c-1.7,2.9-4,5.3-6.9,6.9c-4.1,2.3-8.6,2.8-12.9,3.2l-0.6,4.2c1.6-0.1,3.3-0.2,5-0.4
		c4.7-0.6,10-2.3,14-5.6c2.3-1.8,4-4.2,5.5-6.7c1.5-2.6,2.3-5.5,3-8.3H289C288.3,16,287.6,18.3,286.4,20.4z"/>
	<path class="st0" d="M282.2,11.2c-4.3-0.9-8.6-1.4-13-1.8l-0.6,4.3c4.4,0.3,8.7,1,13,1.9L282.2,11.2z"/>
	<path class="st0" d="M345.8,21.8c2.9-3.9,4.8-7.8,6-12.3h-21.2l-0.6,4H346c-0.8,1.8-1.7,3.6-2.9,5.2c-1.6,2.3-3.5,4.4-5.7,6.1
		c-2,1.7-4.2,3.1-6.5,4.2c-1.5,0.8-3.2,1.3-4.8,1.8l-0.6,4.2c3-0.7,5.8-1.9,8.6-3.4c3.1-1.7,5.7-3.6,8.3-6.1c2.1,4.6,5,7.6,9.6,9.7
		l0.6-4.5C349.3,28.4,347.1,25.9,345.8,21.8z"/>
	<path class="st0" d="M108.4,9.4h-9.8l-3.7,26.4h4.1l1.6-11.5h6.1l4.6,11.5h4.2l0.1-0.5l-4.9-11.8c1.4-0.6,2.6-1.4,3.6-2.5
		c1-1.2,1.6-2.5,1.8-4.1c0.3-2.4-0.2-4.3-1.5-5.6C113.3,10.1,111.2,9.4,108.4,9.4z M112,17.1c-0.2,1.1-0.6,2-1.5,2.6
		c-0.8,0.7-1.9,1-3.2,1h-6.1l1-7.2h6.2c1.3,0,2.3,0.3,2.9,0.9C111.9,15,112.1,15.9,112,17.1z"/>
	<path class="st0" d="M210.2,21.2h13.2c-0.8,2.6-1.9,4.7-4,6.6c-2.3,2-4.9,2.8-7.7,3.3l-0.6,4c0.9-0.2,1.9-0.3,2.8-0.5
		c3.1-0.6,6.2-2.1,8.7-4.3c3.1-2.7,4.4-5.5,5.5-9.2h9.4l0.5-3.9h-27.3L210.2,21.2z"/>
	<polygon class="st0" points="234,9.1 213.9,9.1 213.3,13.1 232.4,13.1 	"/>
	<polygon class="st0" points="236.4,13.1 238.5,7.5 235.3,7.5 233.2,13.1 	"/>
	<polygon class="st0" points="240.4,13.1 242.5,7.5 239.3,7.5 237.2,13.1 	"/>
	<path class="st0" d="M306.6,13.4H317l1.5-3.9h-14.6c-1.7,4.1-3.9,7-7.8,9.4l-0.6,4.3c2.4-0.9,4.4-2.1,6.3-3.9
		C303.8,17.6,305.3,15.6,306.6,13.4z"/>
	<path class="st0" d="M317.8,17c-1.2,3.3-3.3,6.5-6,8.9c-1.8,1.6-3.9,2.9-6.2,3.7c-2.2,0.9-4.5,1.2-6.7,1.6l-0.5,3.9
		c1.6-0.1,3.1-0.4,4.7-0.7c4.2-0.8,8.6-3,12-6.2c3.9-3.6,6.8-9.2,8.1-14.3l-4.4,0.1C318.5,15,318.2,16,317.8,17z"/>
	<polygon class="st0" points="320.8,13.3 323,7.7 319.8,7.8 317.6,13.4 	"/>
	<polygon class="st0" points="323.8,7.7 321.6,13.3 324.8,13.3 327,7.7 	"/>
	<path class="st0" d="M44.8,6.6c-3-2.1-6.6-3.3-10.4-3.3c-9.9,0-18,8-18.1,17.9c-2.4,1.2-5,2.5-7.9,3.9c1.8,0.2,5,0.4,8.4,0.6
		c1.6,6.8,7.1,12.1,14,13.5l0.8,10.1c0,0,1.7-3.7,4.7-9.9c9.1-1,16.1-8.7,16.1-18c0-3.4-1-6.6-2.6-9.3c1.8-3.6,3.7-7.3,5.7-11
		C51.5,3.1,48,4.9,44.8,6.6z M34.2,4.5c3.4,0,6.6,1,9.2,2.8c-9.1,4.7-15.9,8.2-25.8,13.1C18,11.6,25.3,4.5,34.2,4.5z M18.3,25.7
		c5.8,0.3,11.5,0.6,11.4,0.6l0.9,11C24.7,35.9,20,31.4,18.3,25.7z M50.8,21.1c0,8.1-5.8,14.8-13.5,16.3c3-6.3,7.1-14.5,11.7-23.7
		C50.2,15.9,50.8,18.4,50.8,21.1z"/>
</g>
</svg>
