<?xml version="1.0" encoding="utf-8"?>
<!-- Generator: Adobe Illustrator 28.2.0, SVG Export Plug-In . SVG Version: 6.00 Build 0)  -->
<svg version="1.1" id="_レイヤー_2" xmlns="http://www.w3.org/2000/svg" xmlns:xlink="http://www.w3.org/1999/xlink" x="0px"
	 y="0px" viewBox="0 0 361 55" style="enable-background:new 0 0 361 55;" xml:space="preserve">
<style type="text/css">
	.st0{fill:#FFFFFF;}
</style>
<g id="_レイヤー_1-2">
	<path class="st0" d="M43.9,25.8c0,8.4-6.1,15.4-14,16.9c3.1-6.5,7.4-15.1,12.2-24.6C43.3,20.4,43.9,23.1,43.9,25.8 M10.2,30.6
		c6,0.4,12,0.6,11.9,0.6L23,42.6C16.9,41.3,12,36.6,10.2,30.6 M26.7,8.6c3.5,0,6.8,1.1,9.6,2.9c-9.4,4.9-16.5,8.5-26.8,13.6
		C9.9,16,17.5,8.6,26.7,8.6 M37.8,10.8C34.7,8.6,31,7.3,26.9,7.3c-10.3,0-18.6,8.3-18.8,18.5c-2.5,1.2-5.2,2.6-8.1,4
		c1.8,0.2,5.2,0.4,8.7,0.6c1.7,7,7.4,12.5,14.5,14L24.1,55c0,0,1.8-3.9,4.9-10.2c9.4-1,16.8-9,16.8-18.7c0-3.5-1-6.9-2.7-9.7
		c1.9-3.7,3.9-7.5,5.9-11.4C44.7,7.2,41.1,9.1,37.8,10.8"/>
	<polygon class="st0" points="82,25.5 67.2,25.5 67.2,13.8 63,13.8 63,41.1 67.2,41.1 67.2,29.2 82,29.2 82,41.1 86.2,41.1 
		86.2,13.8 82,13.8 	"/>
	<polygon class="st0" points="148.3,17.1 136.8,17.1 136.8,12.8 132.5,12.8 132.5,17.1 121.1,17.1 121.1,21.1 132.5,21.1 
		132.5,41.6 136.8,41.6 136.8,21.1 148.3,21.1 	"/>
	<path class="st0" d="M144.4,23.5h-4.2c0.3,3.4,0.8,6.9,2.3,10c0.8,1.7,1.8,3.2,3.2,4.4c1,0.9,2.1,1.6,3.2,2.2v-4.8
		c-1.5-1.4-2.4-3-3.1-4.9C145,28.3,144.6,25.9,144.4,23.5"/>
	<path class="st0" d="M123.6,30.5c-0.7,1.9-1.6,3.4-3,4.9v4.8c1.1-0.6,2.2-1.3,3.1-2.2c1.3-1.2,2.4-2.8,3.1-4.4
		c1.5-3.1,1.9-6.6,2.2-10h-4.1C124.7,25.9,124.4,28.2,123.6,30.5"/>
	<rect x="153.5" y="25.2" class="st0" width="21.9" height="4.2"/>
	<path class="st0" d="M182.5,21.8c0,3.6-0.3,7.4-1.8,10.7c-0.6,1.3-1.5,2.5-2.5,3.5v5c2.7-1.7,4.7-3.5,6.2-6.4
		c2.1-4,2.5-8.7,2.5-13.2v-8.3h-4.3V21.8L182.5,21.8z"/>
	<path class="st0" d="M200.4,30c-0.7,1.3-1.7,2.5-2.9,3.5c-0.8,0.6-1.7,1-2.7,1.4V13.1h-4.3v27.3c4.6-0.6,8-1.5,11.4-5
		c1.7-1.8,2.8-4,3.6-6.3c0.9-2.4,1.1-5,1.3-7.6h-4.3C202.3,24.5,201.8,27.4,200.4,30"/>
	<path class="st0" d="M255.5,23.9c-3.7,2.4-7.9,3.6-12.1,4.5v3.7c3.9-0.7,7.6-1.7,11.2-3.3v12.4h4.1V26.4c3.4-2.4,5.6-5.1,7.2-9
		h-4.5C259.8,20.3,258.2,22.1,255.5,23.9"/>
	<path class="st0" d="M284.9,15.6c-4.5-0.9-9.1-1.5-13.7-1.8v4.4c4.6,0.4,9.2,1,13.7,2C284.9,20.1,284.9,15.6,284.9,15.6z"/>
	<path class="st0" d="M290.6,25.2c-1.3,3-3.4,5.5-6.2,7.2c-3.9,2.4-8.5,2.9-12.9,3.4V40c1.7-0.1,3.4-0.2,5.1-0.4
		c4.8-0.6,10-2.4,13.7-5.9c2.1-1.9,3.6-4.3,4.7-6.9c1.1-2.7,1.6-5.7,1.9-8.6h-4.7C292,20.6,291.6,23,290.6,25.2"/>
	<path class="st0" d="M352.5,26.6c2.4-4.1,3.8-8.1,4.4-12.8h-21.9v4.1h16.5c-0.6,1.9-1.2,3.7-2.2,5.4c-1.3,2.4-3,4.5-5,6.4
		c-1.8,1.7-3.9,3.2-6.1,4.4c-1.5,0.8-3.1,1.4-4.7,1.9v4.3c3-0.8,5.8-1.9,8.5-3.5c3-1.8,5.4-3.8,7.7-6.3c2.9,4.8,6.3,7.9,11.4,10.1
		v-4.7C357,33.5,354.4,30.8,352.5,26.6"/>
	<path class="st0" d="M104.9,25.7h-6.7v-8.1h6.7c1.5,0,2.6,0.4,3.4,1.1c0.8,0.7,1.2,1.7,1.2,3c0,1.2-0.4,2.2-1.2,2.9
		S106.3,25.7,104.9,25.7 M111.9,25.6c0.8-1.2,1.3-2.5,1.3-4.1c0-2.4-0.8-4.3-2.3-5.6c-1.5-1.3-3.7-1.9-6.5-1.9h-9.9v26.8h3.7v-12
		h6.8l6.4,11.9h3.9v-0.2l-6.9-12.4C109.9,27.6,111,26.8,111.9,25.6"/>
	<path class="st0" d="M211.6,26h13.7c-0.4,2.7-1.2,4.9-3.2,6.8c-2.1,2.1-4.6,2.9-7.5,3.5v4.2c1-0.2,1.9-0.3,2.8-0.5
		c3.1-0.7,6.1-2.2,8.4-4.5c2.8-2.8,3.8-5.7,4.4-9.5h9.7v-4h-28.3C211.6,22,211.6,26,211.6,26z"/>
	<polygon class="st0" points="234.6,13.5 213.7,13.5 213.7,17.5 233.6,17.5 	"/>
	<polygon class="st0" points="237.6,17.6 239.1,11.8 235.7,11.8 234.3,17.6 	"/>
	<polygon class="st0" points="238.5,17.6 241.8,17.5 243.2,11.7 239.9,11.8 	"/>
	<path class="st0" d="M310.5,17.9h10.8l1-4.1h-15.1c-1.1,4.2-3.1,7.3-6.7,9.8V28c2.3-0.9,4.2-2.2,6-4
		C308.3,22.2,309.5,20.1,310.5,17.9"/>
	<path class="st0" d="M322.8,21.6c-0.8,3.4-2.5,6.7-4.9,9.2c-1.7,1.7-3.7,3-5.9,3.9c-2.2,0.9-4.5,1.3-6.8,1.6v4
		c1.6-0.1,3.2-0.4,4.8-0.7c4.2-0.9,8.5-3.1,11.6-6.4c3.6-3.7,5.7-9.6,6.3-14.9l-4.5,0.1C323.2,19.5,323,20.6,322.8,21.6"/>
	<polygon class="st0" points="325.3,17.8 326.3,13.8 326.4,13.4 326.7,12 323.4,12 323.1,13.3 323,13.8 322,17.9 	"/>
	<polygon class="st0" points="327.2,13.4 327.1,13.8 326.2,17.8 327.9,17.8 329.5,17.8 330.5,13.5 330.9,12 327.6,12 	"/>
</g>
</svg>
