<?xml version="1.0" encoding="UTF-8"?><svg id="_レイヤー_2" xmlns="http://www.w3.org/2000/svg" xmlns:xlink="http://www.w3.org/1999/xlink" viewBox="0 0 387.285 82"><defs><style>.cls-1,.cls-2,.cls-3,.cls-4{stroke-width:0px;}.cls-2{fill:none;}.cls-3{fill:#0079c3;}.cls-5{clip-path:url(#clippath);}.cls-4{fill:#f18e02;}</style><clipPath id="clippath"><rect class="cls-2" x=".17403" y="8.5" width="386.285" height="64"/></clipPath></defs><g class="cls-5"><g id="_グループ_977"><path id="_パス_604" class="cls-1" d="M142.59306,38.882l.39398-2.8h-5.52802l.55603-3.955h-2.79999l-.55603,3.955h-1.77002c.37402-.866.71002-1.7,1.02698-2.56l.04498-.119-2.87903-.423-.03003.077c-.74469,2.17051-1.78412,4.22842-3.08899,6.116l.323-2.3h-3.20001l.66602-4.741h-2.70001l-.66602,4.741h-3.77301l-.39301,2.8h3.36902c-1.22327,2.99818-2.92249,5.77928-5.03198,8.236l-.03497.03999.79999,3.55901.13501-.16299c1.47858-1.83888,2.73334-3.84697,3.73798-5.982l-1.62592,11.56699h2.70001l1.53998-10.957c.37048.91724.83746,1.7925,1.39301,2.61099l.078.106,2.12201-2.52499-.05603-.06599c-1.18701-1.30763-2.17743-2.78108-2.94-4.374l.289-2.058h2.89203c-.185.224-.36902.424-.56201.634l-.255.279,2.51099,1.586.07703.049.05798-.071c.83466-1.0101,1.56342-2.10316,2.17499-3.262h2.67499l-.48602,3.46h-6.47101l-.40002,2.827h5.65503c-2.07648,2.83565-4.7146,5.21335-7.75,6.985l-.086.052,1.46997,2.60001.09302-.06599c2.52673-1.7075,4.76202-3.81076,6.62-6.229l-1.18298,8.423h2.79999l1.185-8.429c.85095,2.41072,2.23145,4.60005,4.03998,6.407l.09302.10001,1.88202-3.06799-.06201-.058c-2.07379-1.81001-3.65094-4.11966-4.58197-6.71h5.151l.40002-2.827h-6.052l.48602-3.46,5.52405-.00703Z"/><path id="_パス_605" class="cls-1" d="M147.28798,44.959h5.10901l-1.04102,7.39999c-.61798.077-1.23297.16-1.84802.243-1.22101.164-2.48199.334-3.72601.45399l-.09998.009.07599,2.883.11298-.01401c5.20001-.632,9.70001-1.36099,13.76202-2.229l.07098-.015.37598-2.677-.14203.02699c-1.67499.321-3.466.623-5.62799.948l.98798-7.03h4.82001l.39301-2.8h-12.82886l-.39404,2.80104Z"/><path id="_パス_606" class="cls-1" d="M171.65505,34.445l-.08502-.07c-1.20349-.96959-2.50726-1.80769-3.88898-2.5l-.06897-.035-2,2.2.117.062c1.18115.60777,2.2984,1.33239,3.33502,2.163h-4.33899c.16498-1.35.35797-2.721.54401-4.047l.01703-.118h-2.98798l-.01099.091c-.08398.687-.16101,1.374-.23798,2.061-.07599.671-.151,1.342-.23199,2.013h-13.75317l-.40002,2.827h13.83801c-.38702,3.93-.70001,9.58.92999,13.765.46802,1.2,1.82397,3.995,4.28601,3.995s3.78302-4.136,4.34497-5.89999l.03601-.11501-2.40802-1.478-.03497.13499c-.19763.83812-.46936,1.65701-.81201,2.44701-.40002.912-.69,1.405-1.08099,1.405-.65802,0-1.16302-1.173-1.38599-1.69099-1.44202-3.509-1.26501-8.542-.94-12.562h7.854l.40002-2.827h-2.71399l1.67798-1.82101Z"/><path id="_パス_607" class="cls-1" d="M174.73006,47.44699h6.69c-.95154,2.04475-2.05219,4.01674-3.29303,5.89999-1.216.02499-2.47601.02499-3.69397.02499h-.09998l.01099,2.933h.09998c3.28003-.06,6.13-.146,8.71301-.26199,3.862-.181,7.03198-.39999,9.966-.7.29449.54652.55823,1.10907.78998,1.685l.04602.108,2.91803-1.67599-.03802-.086c-1.27618-2.76303-2.96515-5.31589-5.00897-7.571l-.05499-.063-2.59998,1.465.08197.10001c.92059,1.11978,1.74481,2.31537,2.46399,3.57401-3.46198.175-6.95001.3-10.37201.38,1.17297-1.78799,2.26001-3.657,3.31201-5.467l.20001-.347h13.68103l.38501-2.74699h-23.8111l-.38599,2.74898Z"/><path id="_パス_608" class="cls-1" d="M194.83302,36.732c-1.80847-1.20605-3.30151-2.82803-4.354-4.73l-.02899-.057h-3.12598l-.03101.038c-1.61755,1.88155-3.52563,3.49223-5.65198,4.771-2.13062,1.33791-4.40448,2.43275-6.77899,3.264l-.10999.037,1.28302,2.708.091-.037c1.5368-.61578,3.02991-1.33544,4.46899-2.154l-.18597,1.323h14.12l.20001-1.416c1.20953.8201,2.466,1.56871,3.763,2.242l.07703.04,2.18298-2.8-.12701-.052c-2.04547-.83475-3.98883-1.90068-5.79211-3.17699M182.821,39.2c2.07867-1.35886,4.0033-2.93983,5.73999-4.715,1.27783,1.75778,2.77802,3.34264,4.46301,4.715h-10.203Z"/><path id="_パス_609" class="cls-1" d="M211.88204,49.019l.09003.082,1.72302-2.668-.07098-.058c-1.19305-.89081-2.25305-1.9471-3.14801-3.137,1.21887-1.34779,2.29901-2.81484,3.224-4.379l.39099-2.724h-3.06598l.57397-4.087h-2.90698l-.57397,4.087h-3.95599l-.39001,2.774h6.70001c-1.97015,3.16762-4.75983,5.7438-8.07397,7.456l-.073.03999.836,2.877.11401-.065c1.172-.6613,2.28394-1.42387,3.323-2.27901l-1.40002,9.96899h2.90698l1.46802-10.444c.67664.93163,1.44995,1.78906,2.30701,2.558"/><path id="_パス_610" class="cls-1" d="M227.42806,42.471l.42297-3.01h-5.60596l1.04199-7.414h-2.95898l-1.04199,7.414h-5.47601l-.42297,3.01h5.47601l-1.48401,10.55901h-6.59998l-.42297,3.00999h15.771l.42297-3.00999h-6.20898l1.48401-10.559h5.60291Z"/><path id="_パス_611" class="cls-1" d="M301.21297,57.186c-1.73145-.89806-2.771-2.73215-2.65198-4.679l1.78601-12.711h-9.66602l-.73804,5.252h4.32495l-1.48901,10.593-5.37598,3.39999,1.59998,5.91499,7.30005-6.091c2.05701,3.575,5.80505,4.855,10.08704,4.855h23.83398l.73804-5.25301h-23.52502c-2.14795.1031-4.28723-.33714-6.21997-1.28"/><path id="_パス_612" class="cls-1" d="M303.222,30.969c-1.54846-2.8201-3.54553-5.36942-5.91296-7.548l-4.53796,3.708c2.21765,2.28138,4.09863,4.86742,5.58606,7.68l4.86487-3.84Z"/><path id="_パス_613" class="cls-1" d="M332.68794,23.375h-26.42896l-.67004,4.765h19.38403c-1.20435,1.66619-2.67578,3.12182-4.35498,4.308-1.98499-1.562-5.40002-3.865-5.40002-3.865l-3.93896,2.987c.7085.39767,1.39612.83159,2.06006,1.3h-8.66797l-3.39197,24.142h5.07605l1.04199-7.414h6.28101l-1,7.15h5.03101l1-7.15h6.41504l-.24194,1.721c-.10498.75-.34399,1.191-1.22705,1.191h-3.57397l.25,4.5h5.30005c2.47205,0,3.71704-1.324,4.052-3.708l2.87195-20.435h-6.11902c1.86597-1.49,3.56799-2.937,5.58301-4.726l.6687-4.76601ZM314.20394,45.886h-6.28101l.39099-2.781h6.28101l-.39099,2.781ZM315.0909,39.574h-6.28101l.38501-2.736h6.28101l-.38501,2.736ZM325.64986,45.886h-6.41394l.39001-2.781h6.41504l-.39111,2.781ZM326.53682,39.574h-6.41394l.38501-2.736h6.41504l-.38611,2.736Z"/><path id="_パス_614" class="cls-1" d="M384.36299,23.904h-24.58398l-.62,4.414h24.58398l.62-4.414Z"/><path id="_パス_615" class="cls-1" d="M355.93807,47.785h25.68799l.62-4.414h-25.68506l-.62292,4.414Z"/><path id="_パス_616" class="cls-1" d="M355.38692,30.35l-.651,4.634h31.073l.651-4.634h-31.073Z"/><path id="_パス_617" class="cls-1" d="M356.84297,41.341h25.68799l.62097-4.414h-25.68799l-.62097,4.414Z"/><path id="_パス_618" class="cls-1" d="M357.32503,23.465l-5.47998-.574c-1.60706,5.782-4.80005,12.8-9.23499,17.346l1.13904,6.974c.86292-.73181,1.66821-1.52882,2.40906-2.384l-2.79199,19.862h5.33997l4.22998-30.1c1.82227-3.55518,3.29187-7.2803,4.38794-11.122"/><path id="_パス_619" class="cls-1" d="M352.74397,64.54799h27.18799l2.02405-14.39999h-27.18799l-2.02405,14.39999ZM359.63802,54.43098h16.28699l-.80005,5.66299h-16.28601l.79907-5.66299Z"/><path id="_パス_620" class="cls-1" d="M253.16396,41.649c-.55615,3.87852-1.53943,7.68364-2.93201,11.346,0,0-1.06799,2.992-6.09998,7.986.89294.88,3.84204,3.752,3.84204,3.752,3.86694-4.447,5.87305-7.238,7.46399-11.653,1.29968-3.78863,2.2467-7.68919,2.82898-11.652l.58704-4.178h22.02405l1.81299-12.9h-27.09998l-2.42712,17.299ZM260.01894,28.982h16.72803l-.56006,3.986h-16.7229l.55493-3.986Z"/><path id="_パス_621" class="cls-1" d="M277.97109,50.77l1.625-11.563h-4.63501l-.98596,7.01801h-2.78101l1.09204-7.76801h-4.5l-1.09204,7.76801h-2.82495l.98596-7.01801h-4.54614l-1.625,11.563h7.37097l-1.19995,8.519h-3.61902l.974-6.92999h-4.85498l-1.63306,11.623h21.44995l1.63403-11.623h-4.85498l-.974,6.92999h-3.61902l1.19995-8.519h7.41321Z"/><path id="_パス_622" class="cls-1" d="M250.89009,46.95l-3,.9,1.29395-9.206h2.95703l.745-5.3h-2.95801l1.44495-10.284h-5.16394l-1.44495,10.284h-4.14905l-.74402,5.3h4.14905l-1.52197,10.83-4.79297,1.445-.26404,5.65,11.99194-4.639,1.45703-4.98Z"/><path id="_パス_623" class="cls-4" d="M14.66603,55.088c-.9-2.26399,1.277-5.52901,5.616-9.15401-.10067-.582-.18467-1.16867-.252-1.75999C6.96803,51.252-.94997,57.612.30303,60.77701c1.6,4.037,17.632,1.651,38.491-5.19299-12.885,3.27-22.621,3.315-24.129-.493"/><path id="_パス_624" class="cls-3" d="M83.67403,37.571c-1.623.749-3.17999,1.433-4.606,2.041.04237,1.22518.0043,2.45181-.114,3.672-1.53008,14.98288-14.91647,25.88853-29.89936,24.35845-3.8006-.38813-7.47723-1.57048-10.79164-3.47045-1.17957-.80347-1.60298-2.34342-1-3.637l5.43301-12.734c.3739-1.07221,1.29643-1.85984,2.414-2.061l9.481-1.343c1-.142,1.379.422.854,1.654l-8.3,19.445,9.694-1.373c2.28-.336,3.483-1.222,4.2-2.952l14.53901-34.07h0l2.22301-5.209h0l2.17999-5.108,6.584-5.542-14.31,2.029c-1.77393.39066-3.63019.08074-5.181-.865-3.90517-2.14949-8.2218-3.44635-12.66501-3.805-17.61958-1.43015-33.06245,11.69398-34.4926,29.31356-.14009,1.72598-.13989,3.46049.0006,5.18644.36217,4.47215,1.67619,8.81519,3.854,12.738l2.478-5.806c-5.27116-14.1053,1.89034-29.81303,15.99564-35.08418,7.62428-2.84919,16.12279-2.14313,23.17236,1.92518,1.13399.81708,1.52872,2.32388.94099,3.592l-5.43098,12.735c-.36458,1.07698-1.28949,1.86796-2.41,2.061l-9.484,1.339c-1,.142-1.379-.422-.854-1.654l8.3-19.445-9.695,1.373c-2.281.336-3.468,1.239-4.2,2.959l-16.21401,37.989c4.19388-.41764,8.34817-1.16631,12.424-2.239,0,0-6.162,2.646-13.622,5.046l-1.53,3.585-6.583,5.542,14.31-2.027c1.77474-.23537,3.57933.06516,5.182.863,3.90323,2.15545,8.22128,3.45366,12.66601,3.808,17.61958,1.43015,33.06245-11.69397,34.4926-29.31355.14011-1.72599.13989-3.46049-.0006-5.18645-.009-.112-.02499-.221-.036-.333"/><path id="_パス_625" class="cls-4" d="M103.34602,19.979h0c-1.12299-2.835-9.383-2.492-21.418.329l-1.05099,2.462c4.39999.014,7.33499.947,8.10599,2.9,1.508,3.808-5.62,10.44-17.25201,16.877,19.89099-9.29,33.21201-18.526,31.61401-22.563"/><path id="_パス_626" class="cls-3" d="M79.85503,25.164l-2.478,5.806c.84833,2.30115,1.38052,4.70676,1.582,7.151,1.621-1.1,3.07401-2.191,4.34601-3.25-.61267-3.40254-1.77808-6.68188-3.45001-9.708"/></g></g></svg>