<svg xmlns="http://www.w3.org/2000/svg" width="670" height="96" viewBox="0 0 670 96">
  <g id="お問い合わせ" transform="translate(0 -21.637)">
    <g id="長方形_279" data-name="長方形 279" transform="translate(0 21.637)" fill="none" stroke="#000" stroke-width="1">
      <rect width="670" height="96" rx="10" stroke="none"/>
      <rect x="0.5" y="0.5" width="669" height="95" rx="9.5" fill="none"/>
    </g>
    <path id="パス_1019" data-name="パス 1019" d="M13.675,1.925a3.6,3.6,0,0,1-2.05-.438,1.659,1.659,0,0,1-.6-1.438V-1.825H3.8V-9.65H20.925v7.825H13.9v.65a.618.618,0,0,0,.162.475,1.135,1.135,0,0,0,.713.15h5.5a1.441,1.441,0,0,0,1.313-.563A5.339,5.339,0,0,0,22.1-3.275a8.794,8.794,0,0,0,1.25.538,11.984,11.984,0,0,0,1.35.413A10.509,10.509,0,0,1,24.038.438a2.173,2.173,0,0,1-1.112,1.2,5.033,5.033,0,0,1-1.875.288ZM11.025-10.45v-4.7h-7v3.45H1.175v-5.425h9.85v-1.15H2.7V-20.45H22.325v2.175h-8.45v1.15h9.85V-11.7h-2.85v-3.45h-7v4.7Zm-6.1-2.4V-14.4h5.05v1.55Zm9.95,0V-14.4h5.05v1.55ZM4.925-10.6v-1.525h5.05V-10.6Zm9.95,0v-1.525h5.05V-10.6ZM6.625-3.75h4.4V-4.875h-4.4Zm0-2.85h4.4V-7.725h-4.4ZM13.9-3.75h4.225V-4.875H13.9Zm0-2.85h4.225V-7.725H13.9ZM37.175,1.225V-7.65H40.9v-3.525H35.75V-13.75H40.9v-3.2q-1.1.125-2.162.238t-1.988.162a5.465,5.465,0,0,0-.338-1.25,9.682,9.682,0,0,0-.562-1.275q1.275,0,2.788-.138t3.038-.362q1.525-.225,2.875-.538a15.371,15.371,0,0,0,2.275-.687l1.8,2.25q-.975.325-2.213.613T43.85-17.4v3.65h5.375v2.575H43.85V-7.65h3.875V1.225Zm-10.1.05v-7.2h8.1v7.2ZM26.025-14.25v-2.275H35.8v2.275Zm14.1,12.925h4.65V-5.1h-4.65ZM27.25-17.75V-20.1H34.7v2.35ZM27.225-7.2V-9.5H34.7v2.3Zm0-3.525v-2.3H34.7v2.3Zm2.525,9.7H32.5v-2.6H29.75Zm38.475,2a11.132,11.132,0,0,1-4.6-1.525,8.8,8.8,0,0,1-3.112-3.175A8.82,8.82,0,0,1,59.4-8.175a8.754,8.754,0,0,1,.862-3.675,9.538,9.538,0,0,1,2.587-3.325q-2,.325-3.987.7t-3.6.7q-1.613.325-2.487.55L52.1-16.45q.825-.05,2.288-.225t3.3-.437q1.837-.262,3.8-.575t3.8-.637q1.837-.325,3.3-.638t2.287-.562l.8,3.05q-.4.025-.963.1T69.45-16.2a7.467,7.467,0,0,0-2.625.85,8.521,8.521,0,0,0-2.237,1.75,8.356,8.356,0,0,0-1.562,2.45,7.633,7.633,0,0,0-.575,2.975,5.115,5.115,0,0,0,.975,3.2,6.4,6.4,0,0,0,2.663,1.988,13.937,13.937,0,0,0,3.787.963,5.222,5.222,0,0,0-.725.938,9.22,9.22,0,0,0-.6,1.125A4.684,4.684,0,0,0,68.225.975ZM72.575-10.5a11.49,11.49,0,0,0-1.262-1.65,12.93,12.93,0,0,0-1.437-1.4l1.35-1.125a9.163,9.163,0,0,1,.912.875q.538.575,1.063,1.163a8.634,8.634,0,0,1,.8,1.012Zm-2.25,1.9a11.155,11.155,0,0,0-1.25-1.675A14.287,14.287,0,0,0,67.65-11.7l1.375-1.1a8.4,8.4,0,0,1,.9.875q.525.575,1.037,1.175a12.713,12.713,0,0,1,.787,1ZM89.425.225a4.809,4.809,0,0,0-.375-.95,8.15,8.15,0,0,0-.638-1.063,5.387,5.387,0,0,0-.713-.837,9.4,9.4,0,0,0,5.213-2.238A5.776,5.776,0,0,0,94.8-8.9a6.163,6.163,0,0,0-.675-3.3,6.45,6.45,0,0,0-2.113-2.35,6.441,6.441,0,0,0-2.937-1.075,35.058,35.058,0,0,1-.75,4.75,24.875,24.875,0,0,1-1.488,4.55,13.123,13.123,0,0,1-2.287,3.6A3.788,3.788,0,0,1,82.563-1.45a3.565,3.565,0,0,1-2.037-.275,4.864,4.864,0,0,1-1.85-1.425A6.891,6.891,0,0,1,77.45-5.463a8.072,8.072,0,0,1-.35-2.862,10.425,10.425,0,0,1,1.075-4.163,10.461,10.461,0,0,1,2.55-3.262A10.945,10.945,0,0,1,84.4-17.825a11.766,11.766,0,0,1,4.425-.575,9.949,9.949,0,0,1,3.575.85,9.324,9.324,0,0,1,2.938,2.063,9.306,9.306,0,0,1,1.95,3.038,8.654,8.654,0,0,1,.562,3.775,8.621,8.621,0,0,1-2.4,5.737A11.645,11.645,0,0,1,89.425.225ZM81.3-4.825a.964.964,0,0,0,.575.2.864.864,0,0,0,.6-.3,8.822,8.822,0,0,0,1.662-2.55A20.727,20.727,0,0,0,85.412-11.2a24.779,24.779,0,0,0,.662-4.225,7.714,7.714,0,0,0-3.062,1.45A7.742,7.742,0,0,0,80.9-11.437a7.942,7.942,0,0,0-.875,3.262,4.709,4.709,0,0,0,.313,2.037A3.086,3.086,0,0,0,81.3-4.825ZM8.875,33.775A8.544,8.544,0,0,1,5.6,33.612a4.449,4.449,0,0,1-2.225-1.287,3.262,3.262,0,0,1-.8-2.25,5.407,5.407,0,0,1,1.438-3.488A10.345,10.345,0,0,1,7.975,23.8V20.025q-1.375.1-2.663.15t-2.387,0L2.775,17.3a18.038,18.038,0,0,0,2.325.063q1.375-.037,2.875-.187V13.15l2.775.025V16.85q1.25-.2,2.338-.437a12.006,12.006,0,0,0,1.788-.513l.3,2.75a15.014,15.014,0,0,1-2.025.575q-1.15.25-2.4.45V22.95a15.441,15.441,0,0,1,1.825-.3,18.869,18.869,0,0,1,1.975-.1,10.181,10.181,0,0,1,4.088.737A5.963,5.963,0,0,1,21.2,25.263a4.713,4.713,0,0,1,.875,2.787,4.953,4.953,0,0,1-1.45,3.775,5.387,5.387,0,0,1-3.925,1.35,5.325,5.325,0,0,1-3.238-.962,5.32,5.32,0,0,1-1.887-2.863,13.04,13.04,0,0,0,1.4-.538,8.2,8.2,0,0,0,1.3-.687,2.448,2.448,0,0,0,2.4,2.075,2.14,2.14,0,0,0,1.675-.638,2.282,2.282,0,0,0,.575-1.587,2.446,2.446,0,0,0-1.1-2.038,5.535,5.535,0,0,0-3.3-.812,13.864,13.864,0,0,0-3.775.5V31.85a1.894,1.894,0,0,1-.425,1.363A2.4,2.4,0,0,1,8.875,33.775ZM21.6,22.2a12.063,12.063,0,0,0-1.625-1.312q-1.025-.713-2.1-1.35a12.888,12.888,0,0,0-1.925-.962l1.575-2.25a16.031,16.031,0,0,1,1.975.95q1.075.6,2.1,1.275a14.938,14.938,0,0,1,1.725,1.3q-.25.275-.613.75t-.675.925Q21.725,21.975,21.6,22.2ZM7.075,31.125a1.282,1.282,0,0,0,.688-.1.478.478,0,0,0,.212-.45V26.75A7.087,7.087,0,0,0,6.15,28.275a2.609,2.609,0,0,0-.675,1.65A1,1,0,0,0,5.9,30.8,2.137,2.137,0,0,0,7.075,31.125Zm36.225,3.6a7.924,7.924,0,0,0-.125-.937q-.1-.538-.225-1.05a4.69,4.69,0,0,0-.275-.837H44.35a1.189,1.189,0,0,0,.725-.175.716.716,0,0,0,.225-.6v-9.95H38.375v-8.5H48.2V32.2a2.436,2.436,0,0,1-.687,1.912,3.325,3.325,0,0,1-2.237.612Zm-16.45.025V12.675h9.775v8.5h-6.9V34.75Zm5.825-4.15V23.175H42.1V30.6Zm2.85-2.225H39.25v-2.95H35.525Zm5.65-9.225H45.3V17.775H41.175Zm-11.45,0h4.1V17.775h-4.1Zm11.45-3.1H45.3V14.725H41.175Zm-11.45,0h4.1V14.725h-4.1ZM60.4,30.475a3.825,3.825,0,0,1-2.35.563,2.825,2.825,0,0,1-1.95-1.413A16.515,16.515,0,0,1,54.675,26.8a27.416,27.416,0,0,1-1.112-3.45,31.28,31.28,0,0,1-.7-3.65,23.737,23.737,0,0,1-.212-3.425l3.05.025a16.376,16.376,0,0,0,.075,2.675A26.04,26.04,0,0,0,56.25,21.9a22.719,22.719,0,0,0,.775,2.738A11.2,11.2,0,0,0,58,26.75a1.276,1.276,0,0,0,.763.688,1.187,1.187,0,0,0,.888-.212,7.556,7.556,0,0,0,1.262-1.1,11.562,11.562,0,0,0,1.113-1.35,4.334,4.334,0,0,0,.412.85q.287.475.625.925a6.858,6.858,0,0,0,.613.725,12.081,12.081,0,0,1-1.538,1.85A8.539,8.539,0,0,1,60.4,30.475ZM69.85,25.8a16.631,16.631,0,0,0-.775-1.8q-.525-1.075-1.2-2.237t-1.35-2.15a9.819,9.819,0,0,0-1.25-1.537l2.4-1.525a14.207,14.207,0,0,1,1.387,1.675q.762,1.05,1.5,2.238t1.313,2.3A12.918,12.918,0,0,1,72.7,24.65a8.159,8.159,0,0,0-1.562.475A6.762,6.762,0,0,0,69.85,25.8Zm7.175-2.075a9.554,9.554,0,0,0-.825-1.337,6.371,6.371,0,0,0-1-1.113,21.566,21.566,0,0,0,3.263-1.712,27.9,27.9,0,0,0,3.125-2.3,23.666,23.666,0,0,0,2.675-2.65A16.238,16.238,0,0,0,86.2,11.85l2.775.375a15.786,15.786,0,0,0,2,2.525,24.385,24.385,0,0,0,2.65,2.375,27.059,27.059,0,0,0,3.025,2.038,22.311,22.311,0,0,0,3.125,1.512q-.225.3-.562.813t-.662,1.038a9.613,9.613,0,0,0-.525.95q-1.025-.5-2.1-1.137T93.8,20.975v2H81.15V21.15q-1.025.75-2.075,1.413T77.025,23.725Zm3.1,10.925V25.075h14.75V34.65ZM83.2,32h8.55V27.75H83.2Zm-.875-11.75h10.5a27.843,27.843,0,0,1-2.987-2.588A17.934,17.934,0,0,1,87.5,14.825a16.93,16.93,0,0,1-2.213,2.75A31.645,31.645,0,0,1,82.325,20.25ZM107.3,34.125v-7.15a32.036,32.036,0,0,0-3.075,3.35l-2.275-2.1q1.05-.85,2.425-2.087t2.925-2.463V20.3q-1.125.25-2.2.463t-1.725.337l-.625-2.725a16.933,16.933,0,0,0,1.963-.237q1.287-.213,2.588-.463V13h2.8v3.95a1.5,1.5,0,0,0,.475-.175l1.6,1.2-1.7,3.4a19.07,19.07,0,0,1,2.925-1.45,7.829,7.829,0,0,1,2.85-.575,7.944,7.944,0,0,1,3.5.737,5.687,5.687,0,0,1,2.387,2.1A6.021,6.021,0,0,1,123,25.475a6.557,6.557,0,0,1-2.1,4.9,11.792,11.792,0,0,1-6.2,2.775,5.219,5.219,0,0,0-.362-.95q-.263-.55-.588-1.1a5.249,5.249,0,0,0-.65-.9,16.372,16.372,0,0,0,3.525-.812,6.161,6.161,0,0,0,2.45-1.525,3.362,3.362,0,0,0,.9-2.388A3.341,3.341,0,0,0,119,22.837a4.014,4.014,0,0,0-2.75-.863,7.056,7.056,0,0,0-2.975.75A18.349,18.349,0,0,0,110.1,24.65v9.475Zm30.475-.9a12.61,12.61,0,0,1-3.537-.387,2.86,2.86,0,0,1-1.775-1.325,5.5,5.5,0,0,1-.512-2.613V22.5q-1.6.175-2.962.388t-2.313.438l-.275-2.95q.95-.125,2.4-.288t3.15-.313V14.4h2.85v5.125q1.325-.125,2.688-.225t2.662-.2V13.625h2.9v5.3q1.65-.1,3.012-.15t2.288-.05v3q-.975-.075-2.338-.087t-2.962.037v1.6a5.092,5.092,0,0,1-.425,2.225,2.943,2.943,0,0,1-1.437,1.362,8.145,8.145,0,0,1-2.788.638,7.136,7.136,0,0,0-.4-1.437,4.793,4.793,0,0,0-.675-1.263,5.066,5.066,0,0,0,2.188-.375,1.21,1.21,0,0,0,.637-1.15V21.8q-1.3.075-2.662.175T134.8,22.2v6.3a2.164,2.164,0,0,0,.262,1.163,1.409,1.409,0,0,0,.938.563,9.258,9.258,0,0,0,1.9.15q.925,0,2.2-.1T142.675,30a18.826,18.826,0,0,0,2.25-.425,6.988,6.988,0,0,0-.262,1.025q-.112.6-.163,1.175a6.127,6.127,0,0,0-.025.925q-1.525.25-3.338.388T137.775,33.225Z" transform="translate(28 63.637)"/>
    <path id="パス_1018" data-name="パス 1018" d="M3.6-22.44q0-10.38,3.51-16.23T19.2-44.52q8.58,0,12.09,5.85T34.8-22.44q0,10.5-3.51,16.41T19.2-.12q-8.58,0-12.09-5.91T3.6-22.44Zm24.48,0a45.492,45.492,0,0,0-.63-8.22,11.041,11.041,0,0,0-2.55-5.49,7.284,7.284,0,0,0-5.7-2.13,7.284,7.284,0,0,0-5.7,2.13,11.041,11.041,0,0,0-2.55,5.49,45.492,45.492,0,0,0-.63,8.22,50.092,50.092,0,0,0,.6,8.46,10.586,10.586,0,0,0,2.55,5.52,7.44,7.44,0,0,0,5.73,2.1,7.44,7.44,0,0,0,5.73-2.1,10.586,10.586,0,0,0,2.55-5.52A50.092,50.092,0,0,0,28.08-22.44Zm41.7-16.02L53.1,0H46.2L63.06-37.74H40.86v-5.82H69.78Zm33.6,0L86.7,0H79.8L96.66-37.74H74.46v-5.82h28.92Zm5.76,5.52a11.493,11.493,0,0,1,4.29-8.7,15.667,15.667,0,0,1,10.05-3.12,16.333,16.333,0,0,1,7.26,1.5,10.753,10.753,0,0,1,4.62,4.08,11.026,11.026,0,0,1,1.56,5.82A10.3,10.3,0,0,1,134.94-27a9.626,9.626,0,0,1-4.74,3.54v.24a10.073,10.073,0,0,1,5.52,3.93A12.5,12.5,0,0,1,137.7-12a12.211,12.211,0,0,1-1.62,6.3,11.19,11.19,0,0,1-4.8,4.35A16.874,16.874,0,0,1,123.66.24a16.535,16.535,0,0,1-10.65-3.33q-4.17-3.33-4.47-9.57h6.6a7.486,7.486,0,0,0,2.46,5.19,8.6,8.6,0,0,0,6,2.01,7.563,7.563,0,0,0,5.64-2.01,7.081,7.081,0,0,0,1.98-5.19q0-4.2-2.67-5.97t-8.19-1.77H118.8v-5.64h1.62q4.86-.06,7.41-1.62a5.346,5.346,0,0,0,2.55-4.92,5.932,5.932,0,0,0-1.86-4.59,7.521,7.521,0,0,0-5.28-1.71,7.429,7.429,0,0,0-5.22,1.71,6.907,6.907,0,0,0-2.22,4.23Zm62.04,8.34v5.76H146.52V-24.6Zm7.98,15.48v-5.16L199.32-43.2h8.28v28.14h5.58v5.94H207.6V0h-6.72V-9.12Zm22.02-27.12L187.02-15.06h14.16Zm45.84-1.62h-20.1v11.94a9.5,9.5,0,0,1,3.75-2.82,12.6,12.6,0,0,1,5.31-1.14,14.2,14.2,0,0,1,8.19,2.16,12.1,12.1,0,0,1,4.5,5.46,18.2,18.2,0,0,1,1.35,6.96,17.537,17.537,0,0,1-1.71,7.89,12.716,12.716,0,0,1-5.1,5.43A16.228,16.228,0,0,1,234.9,0q-6.54,0-10.5-3.24a13.118,13.118,0,0,1-4.74-8.58h6.66a7.418,7.418,0,0,0,2.94,4.47,9.47,9.47,0,0,0,5.7,1.65q4.26,0,6.39-2.58a10.4,10.4,0,0,0,2.13-6.84q0-4.32-2.16-6.63t-6.36-2.31a8.158,8.158,0,0,0-4.95,1.47,8.232,8.232,0,0,0-2.91,3.99h-6.48V-43.86h26.4ZM283.44-24.6v5.76H258.78V-24.6Zm36.54-13.86L303.3,0h-6.9l16.86-37.74h-22.2v-5.82h28.92ZM329.64-9.3q5.76-4.98,9.09-8.19a36.9,36.9,0,0,0,5.55-6.69,12.855,12.855,0,0,0,2.22-6.96,8.519,8.519,0,0,0-1.71-5.64q-1.71-2.04-5.37-2.04a6.875,6.875,0,0,0-5.49,2.25,9.363,9.363,0,0,0-2.07,6.03h-6.6q.18-6.84,4.11-10.47a14.148,14.148,0,0,1,9.99-3.63q6.54,0,10.23,3.6a12.8,12.8,0,0,1,3.69,9.6,17.043,17.043,0,0,1-2.19,8.31,33.464,33.464,0,0,1-5.22,7.14q-3.03,3.15-7.71,7.29l-2.7,2.4h19.02V-.6H325.32V-5.58Zm34.62,0q5.76-4.98,9.09-8.19a36.9,36.9,0,0,0,5.55-6.69,12.855,12.855,0,0,0,2.22-6.96,8.519,8.519,0,0,0-1.71-5.64q-1.71-2.04-5.37-2.04a6.875,6.875,0,0,0-5.49,2.25,9.363,9.363,0,0,0-2.07,6.03h-6.6q.18-6.84,4.11-10.47a14.148,14.148,0,0,1,9.99-3.63q6.54,0,10.23,3.6a12.8,12.8,0,0,1,3.69,9.6,17.043,17.043,0,0,1-2.19,8.31,33.464,33.464,0,0,1-5.22,7.14q-3.03,3.15-7.71,7.29l-2.7,2.4H389.1V-.6H359.94V-5.58Zm34.62,0q5.76-4.98,9.09-8.19a36.9,36.9,0,0,0,5.55-6.69,12.855,12.855,0,0,0,2.22-6.96,8.519,8.519,0,0,0-1.71-5.64q-1.71-2.04-5.37-2.04a6.875,6.875,0,0,0-5.49,2.25,9.363,9.363,0,0,0-2.07,6.03h-6.6q.18-6.84,4.11-10.47a14.148,14.148,0,0,1,9.99-3.63q6.54,0,10.23,3.6a12.8,12.8,0,0,1,3.69,9.6,17.043,17.043,0,0,1-2.19,8.31,33.464,33.464,0,0,1-5.22,7.14q-3.03,3.15-7.71,7.29l-2.7,2.4h19.02V-.6H394.56V-5.58Z" transform="translate(198 94.637)"/>
  </g>
</svg>
