<?xml version="1.0" encoding="utf-8"?>
<!-- Generator: Adobe Illustrator 28.2.0, SVG Export Plug-In . SVG Version: 6.00 Build 0)  -->
<svg version="1.1" id="レイヤー_1" xmlns="http://www.w3.org/2000/svg" xmlns:xlink="http://www.w3.org/1999/xlink" x="0px"
	 y="0px" viewBox="0 0 670 130" style="enable-background:new 0 0 670 130;" xml:space="preserve">
<style type="text/css">
	.st0{fill:none;}
	.st1{fill:none;stroke:#000000;}
</style>
<g id="お問い合わせ" transform="translate(0 -21.637)">
	<g id="長方形_279" transform="translate(0 21.637)">
		<path class="st0" d="M10,0h650c5.5,0,10,4.5,10,10v110c0,5.5-4.5,10-10,10H10c-5.5,0-10-4.5-10-10V10C0,4.5,4.5,0,10,0z"/>
		<path class="st1" d="M10,0.5h650c5.2,0,9.5,4.3,9.5,9.5v110c0,5.2-4.3,9.5-9.5,9.5H10c-5.2,0-9.5-4.3-9.5-9.5V10
			C0.5,4.8,4.8,0.5,10,0.5z"/>
	</g>
	<path id="パス_1019" d="M45.5,83.1c-0.7,0.1-1.5-0.1-2.1-0.4c-0.4-0.4-0.7-0.9-0.6-1.5v-1.9h-7.4v-8h17.5v8h-7.2V80
		c0,0.2,0,0.4,0.2,0.5c0.2,0.1,0.5,0.2,0.7,0.2h5.6c0.5,0.1,1-0.2,1.3-0.6c0.3-0.7,0.5-1.4,0.5-2.2c0.4,0.2,0.8,0.4,1.3,0.5
		c0.5,0.2,0.9,0.3,1.4,0.4c-0.1,1-0.3,1.9-0.7,2.8c-0.2,0.5-0.6,1-1.1,1.2c-0.6,0.2-1.3,0.3-1.9,0.3L45.5,83.1z M42.8,70.5v-4.8
		h-7.1v3.5h-2.9v-5.5h10.1v-1.2h-8.5v-2.2h20v2.2h-8.6v1.2h10.1v5.5h-2.9v-3.5h-7.1v4.8H42.8z M36.5,68.1v-1.6h5.2v1.6H36.5z
		 M46.7,68.1v-1.6h5.2v1.6H46.7z M36.5,70.4v-1.6h5.2v1.6H36.5z M46.7,70.4v-1.6h5.2v1.6H46.7z M38.3,77.4h4.5v-1.1h-4.5V77.4z
		 M38.3,74.4h4.5v-1.1h-4.5V74.4z M45.7,77.4H50v-1.1h-4.3V77.4z M45.7,74.4H50v-1.1h-4.3V74.4z M69.5,82.4v-9.1h3.8v-3.6H68v-2.6
		h5.3v-3.3c-0.7,0.1-1.5,0.2-2.2,0.2c-0.7,0.1-1.4,0.1-2,0.2c-0.1-0.4-0.2-0.9-0.3-1.3c-0.2-0.4-0.4-0.9-0.6-1.3
		c0.9,0,1.8,0,2.8-0.1c1-0.1,2.1-0.2,3.1-0.4c1-0.2,2-0.3,2.9-0.5c0.8-0.2,1.6-0.4,2.3-0.7l1.8,2.3c-0.7,0.2-1.4,0.4-2.3,0.6
		c-0.8,0.2-1.7,0.4-2.6,0.5v3.7h5.5v2.6h-5.5v3.6h4v9.1H69.5z M59.2,82.5v-7.4h8.3v7.4H59.2z M58.1,66.6v-2.3h10v2.3H58.1z
		 M72.5,79.8h4.7V76h-4.7V79.8z M59.3,63.1v-2.4h7.6v2.4H59.3z M59.3,73.8v-2.3h7.6v2.3H59.3z M59.3,70.2v-2.3h7.6v2.3H59.3z
		 M61.9,80.1h2.8v-2.7h-2.8V80.1z M101.2,82.2c-1.7-0.2-3.3-0.7-4.7-1.6c-1.3-0.8-2.4-1.9-3.2-3.2c-0.8-1.4-1.2-3-1.1-4.5
		c0-1.3,0.3-2.6,0.9-3.8c0.6-1.3,1.5-2.5,2.6-3.4c-1.4,0.2-2.7,0.5-4.1,0.7c-1.4,0.3-2.6,0.5-3.7,0.7c-1.1,0.2-1.9,0.4-2.5,0.6
		l-0.7-3.3c0.6,0,1.3-0.1,2.3-0.2c1-0.1,2.1-0.3,3.4-0.4c1.3-0.2,2.5-0.4,3.9-0.6c1.3-0.2,2.6-0.4,3.9-0.7c1.3-0.2,2.4-0.4,3.4-0.7
		c1-0.2,1.8-0.4,2.3-0.6l0.8,3.1c-0.3,0-0.6,0.1-1,0.1c-0.4,0.1-0.8,0.1-1.3,0.2c-0.9,0.1-1.8,0.4-2.7,0.9c-0.9,0.5-1.6,1.1-2.3,1.8
		c-0.7,0.7-1.2,1.6-1.6,2.5c-0.4,1-0.6,2-0.6,3c0,1.2,0.3,2.3,1,3.3c0.7,0.9,1.6,1.6,2.7,2c1.2,0.5,2.5,0.8,3.9,1
		c-0.3,0.3-0.5,0.6-0.7,1c-0.2,0.4-0.4,0.8-0.6,1.1C101.4,81.5,101.3,81.9,101.2,82.2z M105.6,70.5c-0.4-0.6-0.8-1.2-1.3-1.7
		c-0.5-0.5-0.9-1-1.5-1.4l1.4-1.1c0.3,0.3,0.6,0.6,0.9,0.9c0.4,0.4,0.7,0.8,1.1,1.2c0.3,0.3,0.6,0.7,0.8,1L105.6,70.5z M103.3,72.4
		c-0.4-0.6-0.8-1.2-1.3-1.7c-0.5-0.5-0.9-1-1.5-1.5l1.4-1.1c0.3,0.3,0.6,0.6,0.9,0.9c0.4,0.4,0.7,0.8,1.1,1.2c0.3,0.3,0.6,0.7,0.8,1
		L103.3,72.4z M122.8,81.4c-0.1-0.3-0.2-0.7-0.4-1c-0.2-0.4-0.4-0.7-0.7-1.1c-0.2-0.3-0.5-0.6-0.7-0.9c2-0.2,3.8-1,5.3-2.3
		c1.2-1.1,1.9-2.5,1.9-4.1c0.1-1.2-0.2-2.3-0.7-3.4c-0.5-1-1.3-1.8-2.2-2.4c-0.9-0.6-1.9-1-3-1.1c-0.1,1.6-0.4,3.3-0.8,4.8
		c-0.4,1.6-0.9,3.1-1.5,4.6c-0.6,1.3-1.4,2.6-2.3,3.7c-0.5,0.6-1.2,1.1-2,1.3c-0.7,0.1-1.4,0-2.1-0.3c-0.7-0.3-1.4-0.8-1.9-1.5
		c-0.6-0.7-1-1.5-1.3-2.4c-0.3-0.9-0.4-1.9-0.4-2.9c0.1-1.5,0.4-2.9,1.1-4.3c0.6-1.3,1.5-2.4,2.6-3.3c1.1-0.9,2.4-1.7,3.8-2.1
		c1.5-0.5,3-0.7,4.5-0.6c1.3,0.1,2.5,0.4,3.7,0.9c1.1,0.5,2.1,1.2,3,2.1c0.9,0.9,1.5,1.9,2,3.1c0.5,1.2,0.7,2.5,0.6,3.9
		c-0.1,2.2-0.9,4.3-2.5,5.9C127.3,79.9,125.2,81,122.8,81.4z M114.5,76.3c0.2,0.1,0.4,0.2,0.6,0.2c0.2,0,0.5-0.1,0.6-0.3
		c0.7-0.8,1.3-1.6,1.7-2.6c0.6-1.2,1-2.5,1.3-3.8c0.3-1.4,0.6-2.9,0.7-4.3c-1.1,0.3-2.2,0.8-3.1,1.5c-0.9,0.7-1.6,1.6-2.2,2.6
		c-0.5,1-0.8,2.2-0.9,3.3c0,0.7,0.1,1.4,0.3,2.1C113.7,75.4,114.1,75.9,114.5,76.3z M40.6,115.7c-1.1,0.2-2.3,0.1-3.3-0.2
		c-0.9-0.2-1.7-0.7-2.3-1.3c-0.6-0.6-0.8-1.5-0.8-2.3c0-1.3,0.6-2.6,1.5-3.6c1.1-1.3,2.5-2.2,4-2.8v-3.9c-0.9,0.1-1.8,0.1-2.7,0.2
		c-0.9,0-1.7,0-2.4,0l-0.2-2.9c0.8,0.1,1.6,0.1,2.4,0.1c0.9,0,1.9-0.1,2.9-0.2v-4.1l2.8,0v3.8c0.9-0.1,1.6-0.3,2.4-0.4
		c0.6-0.1,1.2-0.3,1.8-0.5l0.3,2.8c-0.7,0.2-1.4,0.4-2.1,0.6c-0.8,0.2-1.6,0.3-2.5,0.5v3.3c0.6-0.1,1.2-0.2,1.9-0.3
		c0.7-0.1,1.3-0.1,2-0.1c1.4,0,2.8,0.2,4.2,0.8c1,0.4,1.9,1.1,2.6,2c0.6,0.8,0.9,1.8,0.9,2.8c0.1,1.4-0.5,2.8-1.5,3.9
		c-1.1,1-2.5,1.5-4,1.4c-1.2,0-2.3-0.3-3.3-1c-0.9-0.7-1.6-1.8-1.9-2.9c0.5-0.2,1-0.3,1.4-0.5c0.5-0.2,0.9-0.4,1.3-0.7
		c0.2,1.2,1.2,2.1,2.5,2.1c0.6,0,1.3-0.2,1.7-0.7c0.4-0.4,0.6-1,0.6-1.6c0-0.8-0.4-1.6-1.1-2.1c-1-0.6-2.2-0.9-3.4-0.8
		c-1.3,0-2.6,0.2-3.9,0.5v6.4c0,0.5-0.1,1-0.4,1.4C41.6,115.4,41.1,115.6,40.6,115.7z M53.6,103.9c-0.5-0.5-1.1-0.9-1.7-1.3
		c-0.7-0.5-1.4-0.9-2.1-1.4c-0.6-0.4-1.3-0.7-2-1l1.6-2.3c0.7,0.3,1.4,0.6,2,1c0.7,0.4,1.4,0.8,2.1,1.3c0.6,0.4,1.2,0.8,1.8,1.3
		c-0.2,0.2-0.4,0.4-0.6,0.8c-0.2,0.3-0.5,0.6-0.7,0.9C53.8,103.5,53.7,103.7,53.6,103.9z M38.7,113c0.2,0,0.5,0,0.7-0.1
		c0.2-0.1,0.2-0.3,0.2-0.5v-3.9c-0.7,0.4-1.3,0.9-1.9,1.6c-0.4,0.5-0.7,1.1-0.7,1.7c0,0.4,0.1,0.7,0.4,0.9
		C37.9,112.9,38.3,113,38.7,113z M75.7,116.6c0-0.3-0.1-0.6-0.1-1c-0.1-0.4-0.1-0.7-0.2-1.1c-0.1-0.3-0.2-0.6-0.3-0.9h1.7
		c0.3,0,0.5,0,0.7-0.2c0.2-0.2,0.3-0.4,0.2-0.6v-10.2h-7.1v-8.7h10v19.9c0.1,0.7-0.2,1.4-0.7,2c-0.7,0.5-1.5,0.7-2.3,0.6L75.7,116.6
		z M58.9,116.7V94.1h10v8.7h-7v13.9H58.9z M64.9,112.4v-7.6h9.6v7.6H64.9z M67.8,110.2h3.8v-3h-3.8V110.2z M73.6,100.7h4.2v-1.4
		h-4.2V100.7z M61.9,100.7h4.2v-1.4h-4.2L61.9,100.7z M73.6,97.6h4.2v-1.4h-4.2V97.6z M61.9,97.6h4.2v-1.4h-4.2L61.9,97.6z
		 M93.2,112.3c-0.7,0.4-1.6,0.6-2.4,0.6c-0.8-0.2-1.6-0.7-2-1.4c-0.6-0.9-1.1-1.9-1.5-2.9c-0.5-1.1-0.8-2.3-1.1-3.5
		c-0.3-1.2-0.6-2.5-0.7-3.7c-0.2-1.2-0.2-2.3-0.2-3.5l3.1,0c0,0.9,0,1.8,0.1,2.7c0.1,1,0.3,2,0.5,3c0.2,0.9,0.5,1.9,0.8,2.8
		c0.3,0.8,0.6,1.5,1,2.2c0.1,0.3,0.4,0.6,0.8,0.7c0.3,0.1,0.6,0,0.9-0.2c0.5-0.3,0.9-0.7,1.3-1.1c0.4-0.4,0.8-0.9,1.1-1.4
		c0.1,0.3,0.2,0.6,0.4,0.9c0.2,0.3,0.4,0.6,0.6,0.9c0.2,0.3,0.4,0.5,0.6,0.7c-0.5,0.7-1,1.3-1.6,1.9
		C94.4,111.5,93.8,111.9,93.2,112.3z M102.8,107.5c-0.2-0.6-0.5-1.2-0.8-1.8c-0.4-0.7-0.8-1.5-1.2-2.3s-0.9-1.5-1.4-2.2
		c-0.4-0.6-0.8-1.1-1.3-1.6l2.5-1.6c0.5,0.5,1,1.1,1.4,1.7c0.5,0.7,1,1.5,1.5,2.3s0.9,1.6,1.3,2.3c0.3,0.6,0.6,1.3,0.8,1.9
		c-0.5,0.1-1.1,0.3-1.6,0.5C103.7,107,103.3,107.3,102.8,107.5z M110.2,105.4c-0.2-0.5-0.5-0.9-0.8-1.4c-0.3-0.4-0.6-0.8-1-1.1
		c1.2-0.5,2.3-1.1,3.3-1.7c1.1-0.7,2.2-1.5,3.2-2.3c1-0.8,1.9-1.7,2.7-2.7c0.8-0.9,1.4-1.8,2-2.8l2.8,0.4c0.6,0.9,1.3,1.8,2,2.6
		c0.8,0.9,1.7,1.7,2.7,2.4c1,0.8,2,1.5,3.1,2.1c1,0.6,2.1,1.1,3.2,1.5c-0.2,0.2-0.3,0.5-0.6,0.8s-0.5,0.7-0.7,1.1
		c-0.2,0.3-0.4,0.6-0.5,1c-0.7-0.3-1.4-0.7-2.1-1.2c-0.7-0.4-1.5-0.9-2.2-1.4v2h-12.9v-1.9c-0.7,0.5-1.4,1-2.1,1.4
		C111.5,104.7,110.8,105.1,110.2,105.4z M113.3,116.6v-9.8h15.1v9.8L113.3,116.6z M116.5,113.9h8.7v-4.3h-8.7V113.9z M115.6,101.9
		h10.7c-1.1-0.8-2.1-1.7-3-2.6c-0.9-0.9-1.7-1.9-2.4-2.9c-0.7,1-1.4,2-2.3,2.8C117.7,100.1,116.6,101,115.6,101.9z M141.1,116v-7.3
		c-1.1,1.1-2.2,2.2-3.1,3.4l-2.3-2.1c0.7-0.6,1.5-1.3,2.5-2.1c0.9-0.8,1.9-1.7,3-2.5v-3.4c-0.8,0.2-1.5,0.3-2.2,0.5
		c-0.7,0.1-1.3,0.3-1.8,0.3l-0.6-2.8c0.7,0,1.3-0.1,2-0.2c0.9-0.1,1.8-0.3,2.6-0.5v-4.8h2.9v4c0.2,0,0.3-0.1,0.5-0.2l1.6,1.2
		l-1.7,3.5c1-0.6,2-1.1,3-1.5c0.9-0.4,1.9-0.6,2.9-0.6c1.2,0,2.5,0.2,3.6,0.8c1,0.5,1.8,1.2,2.4,2.1c0.6,1,0.9,2.2,0.9,3.4
		c0,1.9-0.8,3.7-2.1,5c-1.8,1.5-4,2.5-6.3,2.8c-0.1-0.3-0.2-0.7-0.4-1c-0.2-0.4-0.4-0.7-0.6-1.1c-0.2-0.3-0.4-0.6-0.7-0.9
		c1.2-0.1,2.4-0.4,3.6-0.8c0.9-0.3,1.8-0.8,2.5-1.6c0.6-0.7,0.9-1.5,0.9-2.4c0.1-1-0.3-2-1-2.7c-0.8-0.6-1.8-0.9-2.8-0.9
		c-1.1,0-2.1,0.3-3,0.8c-1.1,0.5-2.2,1.2-3.2,2v9.7H141.1z M172.2,115.1c-1.2,0-2.4-0.1-3.6-0.4c-0.8-0.2-1.4-0.7-1.8-1.4
		c-0.4-0.8-0.6-1.7-0.5-2.7v-6.5c-1.1,0.1-2.1,0.3-3,0.4c-0.9,0.1-1.7,0.3-2.4,0.4l-0.3-3c0.6-0.1,1.5-0.2,2.5-0.3
		c1-0.1,2.1-0.2,3.2-0.3v-5.5h2.9v5.2c0.9-0.1,1.8-0.2,2.7-0.2s1.8-0.1,2.7-0.2v-5.6h3v5.4c1.1-0.1,2.1-0.1,3.1-0.2
		c0.9,0,1.7-0.1,2.3-0.1v3.1c-0.7-0.1-1.5-0.1-2.4-0.1s-1.9,0-3,0v1.6c0,0.8-0.1,1.6-0.4,2.3c-0.3,0.6-0.8,1.1-1.5,1.4
		c-0.9,0.4-1.9,0.6-2.8,0.7c-0.1-0.5-0.2-1-0.4-1.5c-0.2-0.5-0.4-0.9-0.7-1.3c0.8,0,1.5-0.1,2.2-0.4c0.4-0.2,0.7-0.7,0.7-1.2v-1.5
		c-0.9,0.1-1.8,0.1-2.7,0.2c-0.9,0.1-1.8,0.1-2.7,0.2v6.4c0,0.4,0.1,0.8,0.3,1.2c0.2,0.3,0.6,0.5,1,0.6c0.6,0.1,1.3,0.2,1.9,0.2
		c0.6,0,1.4,0,2.2-0.1s1.7-0.2,2.6-0.3c0.8-0.1,1.5-0.2,2.3-0.4c-0.1,0.3-0.2,0.7-0.3,1c-0.1,0.4-0.1,0.8-0.2,1.2c0,0.3,0,0.6,0,0.9
		c-1,0.2-2.2,0.3-3.4,0.4S173.2,115.1,172.2,115.1L172.2,115.1z"/>
	<path id="パス_1018" d="M208.8,89.9c0-7.1,1.2-12.6,3.6-16.6c2.4-4,6.5-6,12.3-6c5.8,0,10,2,12.3,6c2.4,4,3.6,9.5,3.6,16.6
		c0,7.1-1.2,12.7-3.6,16.8c-2.4,4-6.5,6-12.3,6c-5.8,0-10-2-12.3-6C210,102.7,208.8,97.1,208.8,89.9z M233.8,89.9
		c0-2.8-0.2-5.6-0.6-8.4c-0.3-2.1-1.2-4-2.6-5.6c-1.5-1.5-3.7-2.3-5.8-2.2c-2.2-0.2-4.3,0.6-5.8,2.2c-1.4,1.6-2.3,3.5-2.6,5.6
		c-0.5,2.8-0.7,5.6-0.6,8.4c0,2.9,0.2,5.8,0.6,8.6c0.3,2.1,1.2,4.1,2.6,5.6c1.6,1.5,3.7,2.3,5.9,2.1c2.2,0.2,4.3-0.6,5.9-2.1
		c1.4-1.6,2.3-3.5,2.6-5.6C233.6,95.7,233.8,92.8,233.8,89.9z M276.3,73.6l-17,39.3h-7l17.2-38.5h-22.7v-5.9h29.5V73.6z M310.6,73.6
		l-17,39.3h-7l17.2-38.5h-22.7v-5.9h29.5V73.6z M316.5,79.2c0.1-3.5,1.7-6.7,4.4-8.9c3-2.2,6.6-3.3,10.3-3.2
		c2.6-0.1,5.1,0.5,7.4,1.5c1.9,0.9,3.6,2.3,4.7,4.2c1.1,1.8,1.6,3.9,1.6,5.9c0.1,2.3-0.6,4.6-2,6.5c-1.2,1.7-2.9,2.9-4.8,3.6v0.2
		c2.3,0.6,4.3,2.1,5.6,4c1.4,2.2,2.1,4.8,2,7.4c0,2.3-0.5,4.5-1.7,6.4c-1.2,1.9-2.9,3.5-4.9,4.4c-2.4,1.1-5.1,1.7-7.8,1.6
		c-3.9,0.2-7.8-1-10.9-3.4c-2.8-2.3-4.4-5.5-4.6-9.8h6.7c0.1,2,1,3.9,2.5,5.3c1.7,1.4,3.9,2.2,6.1,2.1c2.1,0.1,4.2-0.6,5.8-2.1
		c1.4-1.4,2.1-3.3,2-5.3c0-2.9-0.9-4.9-2.7-6.1c-1.8-1.2-4.6-1.8-8.4-1.8h-1.6v-5.8h1.7c3.3,0,5.8-0.6,7.6-1.7c1.7-1.1,2.7-3,2.6-5
		c0.1-1.8-0.6-3.5-1.9-4.7c-1.5-1.2-3.4-1.9-5.4-1.7c-1.9-0.1-3.8,0.5-5.3,1.7c-1.2,1.1-2,2.7-2.3,4.3H316.5z M379.9,87.7v5.9h-25.2
		v-5.9H379.9z M388,103.5v-5.3l20.6-29.5h8.5v28.7h5.7v6.1h-5.7v9.3h-6.9v-9.3H388z M410.5,75.8L396,97.5h14.5L410.5,75.8z
		 M457.3,74.2h-20.5v12.2c1-1.3,2.3-2.3,3.8-2.9c1.7-0.8,3.6-1.2,5.4-1.2c2.9-0.1,5.9,0.6,8.4,2.2c2.1,1.4,3.7,3.3,4.6,5.6
		c0.9,2.3,1.4,4.7,1.4,7.1c0.1,2.8-0.5,5.5-1.7,8.1c-1.1,2.3-3,4.3-5.2,5.5c-2.6,1.4-5.5,2.1-8.5,2c-4.5,0-8-1.1-10.7-3.3
		c-2.7-2.2-4.4-5.3-4.8-8.8h6.8c0.4,1.8,1.5,3.5,3,4.6c1.7,1.2,3.7,1.8,5.8,1.7c2.9,0,5.1-0.9,6.5-2.6c1.5-2,2.3-4.5,2.2-7
		c0-2.9-0.7-5.2-2.2-6.8c-1.5-1.6-3.6-2.4-6.5-2.4c-1.8-0.1-3.6,0.5-5.1,1.5c-1.4,1-2.4,2.4-3,4.1h-6.6V68.1h27V74.2z M494.5,87.7
		v5.9h-25.2v-5.9H494.5z M531.8,73.6l-17,39.3h-7l17.2-38.5h-22.7v-5.9h29.5V73.6z M541.7,103.3c3.9-3.4,7-6.2,9.3-8.4
		c2.2-2,4.1-4.3,5.7-6.8c1.4-2.1,2.2-4.6,2.3-7.1c0.1-2.1-0.5-4.1-1.7-5.8c-1.2-1.4-3-2.1-5.5-2.1c-2.1-0.1-4.2,0.7-5.6,2.3
		c-1.4,1.7-2.2,3.9-2.1,6.2h-6.7c0.1-4.7,1.5-8.2,4.2-10.7c2.8-2.5,6.4-3.8,10.2-3.7c4.5,0,7.9,1.2,10.4,3.7
		c2.6,2.6,3.9,6.2,3.8,9.8c0,3-0.8,5.9-2.2,8.5c-1.4,2.7-3.2,5.1-5.3,7.3c-2.1,2.1-4.7,4.6-7.9,7.4l-2.8,2.5H567v5.8h-29.8v-5.1
		L541.7,103.3z M577,103.3c3.9-3.4,7-6.2,9.3-8.4c2.2-2,4.1-4.3,5.7-6.8c1.4-2.1,2.2-4.6,2.3-7.1c0.1-2.1-0.5-4.1-1.7-5.8
		c-1.2-1.4-3-2.1-5.5-2.1c-2.1-0.1-4.2,0.7-5.6,2.3c-1.4,1.7-2.2,3.9-2.1,6.2h-6.7c0.1-4.7,1.5-8.2,4.2-10.7
		c2.8-2.5,6.4-3.8,10.2-3.7c4.5,0,7.9,1.2,10.4,3.7c2.6,2.6,3.9,6.2,3.8,9.8c0,3-0.8,5.9-2.2,8.5c-1.4,2.7-3.2,5.1-5.3,7.3
		c-2.1,2.1-4.7,4.6-7.9,7.4l-2.8,2.5h19.4v5.8h-29.8v-5.1L577,103.3z M612.4,103.3c3.9-3.4,7-6.2,9.3-8.4c2.2-2,4.1-4.3,5.7-6.8
		c1.4-2.1,2.2-4.6,2.3-7.1c0.1-2.1-0.5-4.1-1.7-5.8c-1.2-1.4-3-2.1-5.5-2.1c-2.1-0.1-4.2,0.7-5.6,2.3c-1.4,1.7-2.2,3.9-2.1,6.2h-6.7
		c0.1-4.7,1.5-8.2,4.2-10.7c2.8-2.5,6.4-3.8,10.2-3.7c4.5,0,7.9,1.2,10.4,3.7c2.6,2.6,3.9,6.2,3.8,9.8c0,3-0.8,5.9-2.2,8.5
		c-1.4,2.7-3.2,5.1-5.3,7.3c-2.1,2.1-4.7,4.6-7.9,7.4l-2.8,2.5h19.4v5.8h-29.8v-5.1L612.4,103.3z"/>
</g>
</svg>
